<svg width="507" height="382" viewBox="0 0 507 382" fill="none" xmlns="http://www.w3.org/2000/svg">
<path d="M288.635 319.154C285.447 319.19 282.27 318.763 279.205 317.887C271.118 315.454 263.881 308.675 259.369 299.311C255.325 290.923 253.703 281.686 252.144 272.702C252.127 272.622 252.128 272.539 252.145 272.459C252.162 272.379 252.195 272.304 252.243 272.237C252.29 272.17 252.351 272.114 252.421 272.072C252.492 272.03 252.57 272.003 252.651 271.993C252.73 271.978 252.811 271.979 252.89 271.996C252.968 272.013 253.043 272.046 253.109 272.092C253.175 272.137 253.231 272.196 253.274 272.264C253.318 272.332 253.347 272.407 253.361 272.487C254.907 281.356 256.504 290.505 260.471 298.741C264.844 307.801 271.803 314.326 279.56 316.67C285.2 318.355 291.348 317.937 297.153 317.253C309.587 315.783 317.167 311.931 320.348 305.494C320.462 305.241 320.576 305.013 320.652 304.798C318.662 305.355 316.698 306.065 314.771 306.787C313.174 307.37 311.526 307.965 309.878 308.485C301.859 311.001 293.353 311.557 285.073 310.107C281.081 309.397 278.647 307.471 278.558 304.962C278.47 302.453 280.637 300.451 284.503 299.336C295.096 296.259 306.316 296.053 317.014 298.741C320.056 299.501 321.73 300.768 322.084 302.605C322.122 302.806 322.148 303.01 322.16 303.214C322.642 303.1 323.124 302.998 323.618 302.91C328.764 301.997 334.138 302.517 339.335 303.011C346.712 303.72 353.683 304.392 359.97 301.3C360.118 301.231 360.288 301.222 360.442 301.277C360.596 301.331 360.723 301.444 360.794 301.592C360.831 301.664 360.852 301.743 360.858 301.824C360.864 301.904 360.854 301.985 360.828 302.062C360.802 302.139 360.761 302.21 360.707 302.27C360.653 302.331 360.588 302.38 360.515 302.415C353.911 305.646 346.446 304.95 339.221 304.24C334.151 303.746 328.815 303.239 323.834 304.126C323.225 304.227 322.566 304.367 322.021 304.506C321.872 305.067 321.664 305.611 321.4 306.128C318.028 312.97 310.119 317.038 297.254 318.571C294.395 318.936 291.517 319.13 288.635 319.154V319.154ZM301.855 298.069C296.099 298.071 290.373 298.886 284.845 300.489C283.299 300.933 279.699 302.276 279.775 304.899C279.851 307.522 283.996 308.7 285.264 308.865C293.341 310.306 301.647 309.793 309.485 307.37C311.108 306.863 312.743 306.267 314.315 305.697C316.482 304.899 318.688 304.088 320.956 303.492C320.983 303.278 320.983 303.061 320.956 302.846C320.665 301.503 319.283 300.553 316.736 299.907C311.87 298.683 306.872 298.066 301.855 298.069V298.069Z" fill="#E6E7E8"/>
<path d="M437.909 125.238H355.407C352.075 125.238 349.374 127.938 349.374 131.269V307.649C349.374 310.98 352.075 313.68 355.407 313.68H437.909C441.241 313.68 443.942 310.98 443.942 307.649V131.269C443.942 127.938 441.241 125.238 437.909 125.238Z" fill="white"/>
<path d="M437.909 314.288H355.407C353.647 314.285 351.959 313.584 350.714 312.34C349.469 311.095 348.769 309.408 348.765 307.649V131.257C348.769 129.497 349.469 127.81 350.714 126.566C351.959 125.321 353.647 124.621 355.407 124.617H437.909C439.671 124.617 441.362 125.316 442.609 126.561C443.857 127.806 444.56 129.495 444.563 131.257V307.649C444.56 309.411 443.857 311.099 442.609 312.344C441.362 313.589 439.671 314.288 437.909 314.288V314.288ZM355.407 125.846C353.972 125.846 352.595 126.416 351.58 127.431C350.565 128.446 349.995 129.822 349.995 131.257V307.649C349.995 309.083 350.565 310.46 351.58 311.474C352.595 312.489 353.972 313.059 355.407 313.059H437.909C439.344 313.059 440.721 312.489 441.736 311.474C442.751 310.46 443.321 309.083 443.321 307.649V131.257C443.321 129.822 442.751 128.446 441.736 127.431C440.721 126.416 439.344 125.846 437.909 125.846H355.407Z" fill="#231F20"/>
<path d="M438.973 142.28H354.342V287.299H438.973V142.28Z" fill="#68E1FD"/>
<path d="M404.713 294.357H388.603C386.559 294.357 384.902 296.013 384.902 298.057V304.227C384.902 306.271 386.559 307.927 388.603 307.927H404.713C406.757 307.927 408.414 306.271 408.414 304.227V298.057C408.414 296.013 406.757 294.357 404.713 294.357Z" fill="white"/>
<path d="M404.7 308.536H388.616C387.469 308.536 386.37 308.08 385.559 307.27C384.749 306.46 384.293 305.361 384.293 304.215V298.069C384.293 296.923 384.749 295.824 385.559 295.014C386.37 294.204 387.469 293.749 388.616 293.749H404.7C405.269 293.747 405.832 293.857 406.358 294.074C406.884 294.29 407.362 294.608 407.765 295.01C408.167 295.411 408.487 295.888 408.705 296.413C408.923 296.938 409.035 297.501 409.035 298.069V304.215C409.032 305.362 408.573 306.461 407.761 307.271C406.948 308.081 405.848 308.536 404.7 308.536ZM388.616 294.978C387.795 294.978 387.009 295.303 386.429 295.883C385.849 296.463 385.523 297.249 385.523 298.069V304.215C385.523 305.035 385.849 305.821 386.429 306.401C387.009 306.981 387.795 307.306 388.616 307.306H404.7C405.52 307.306 406.307 306.981 406.887 306.401C407.467 305.821 407.793 305.035 407.793 304.215V298.069C407.793 297.249 407.467 296.463 406.887 295.883C406.307 295.303 405.52 294.978 404.7 294.978H388.616Z" fill="#E6E7E8"/>
<path d="M405.207 133.981H381.125C381.044 133.982 380.963 133.968 380.888 133.938C380.813 133.908 380.744 133.864 380.686 133.807C380.628 133.751 380.582 133.683 380.551 133.608C380.52 133.534 380.503 133.454 380.504 133.373C380.504 133.208 380.569 133.05 380.685 132.934C380.802 132.817 380.96 132.752 381.125 132.752H405.207C405.288 132.752 405.368 132.768 405.443 132.799C405.518 132.831 405.585 132.876 405.642 132.934C405.698 132.992 405.743 133.061 405.773 133.136C405.803 133.211 405.817 133.292 405.815 133.373C405.817 133.453 405.803 133.533 405.773 133.607C405.743 133.682 405.698 133.75 405.641 133.807C405.584 133.863 405.517 133.908 405.442 133.938C405.367 133.968 405.287 133.983 405.207 133.981V133.981Z" fill="#E6E7E8"/>
<path d="M411.811 133.981H408.579C408.417 133.981 408.263 133.917 408.148 133.803C408.034 133.689 407.97 133.534 407.97 133.373C407.97 133.21 408.034 133.054 408.148 132.938C408.261 132.822 408.416 132.755 408.579 132.752H411.811C411.975 132.752 412.133 132.817 412.25 132.934C412.366 133.05 412.432 133.208 412.432 133.373C412.432 133.454 412.416 133.534 412.384 133.608C412.353 133.683 412.307 133.751 412.249 133.807C412.191 133.864 412.123 133.908 412.047 133.938C411.972 133.968 411.892 133.982 411.811 133.981V133.981Z" fill="#E6E7E8"/>
<path d="M428.225 233.397H365.04C363.783 233.397 362.577 232.898 361.688 232.009C360.799 231.12 360.3 229.915 360.3 228.658V197.462C360.298 196.839 360.419 196.221 360.657 195.645C360.894 195.068 361.243 194.545 361.683 194.103C362.124 193.662 362.647 193.312 363.223 193.073C363.799 192.834 364.416 192.711 365.04 192.711H428.174C429.435 192.711 430.644 193.211 431.535 194.102C432.427 194.993 432.927 196.202 432.927 197.462V228.658C432.924 229.907 432.429 231.105 431.549 231.992C430.669 232.879 429.474 233.384 428.225 233.397V233.397ZM365.04 193.952C364.109 193.952 363.216 194.322 362.557 194.98C361.899 195.639 361.529 196.531 361.529 197.462V228.658C361.529 229.589 361.899 230.482 362.557 231.14C363.216 231.798 364.109 232.168 365.04 232.168H428.174C429.105 232.168 429.998 231.798 430.657 231.14C431.315 230.482 431.685 229.589 431.685 228.658V197.462C431.685 196.531 431.315 195.639 430.657 194.98C429.998 194.322 429.105 193.952 428.174 193.952H365.04Z" fill="white"/>
<path d="M360.959 229.811C360.831 229.809 360.708 229.767 360.605 229.692C360.502 229.618 360.425 229.513 360.383 229.393C360.342 229.272 360.338 229.142 360.373 229.02C360.408 228.898 360.48 228.789 360.578 228.709L391.86 203.962C391.982 203.87 392.132 203.826 392.284 203.837C392.436 203.849 392.579 203.916 392.684 204.026L411.354 223.387C411.47 223.503 411.535 223.66 411.535 223.824C411.535 223.988 411.47 224.145 411.354 224.261C411.298 224.318 411.231 224.363 411.157 224.394C411.083 224.424 411.004 224.44 410.924 224.44C410.843 224.44 410.764 224.424 410.69 224.394C410.616 224.363 410.549 224.318 410.493 224.261L392.215 205.255L361.364 229.659C361.253 229.759 361.108 229.813 360.959 229.811V229.811Z" fill="white"/>
<path d="M432.357 223.602C432.27 223.601 432.184 223.581 432.105 223.544C432.027 223.507 431.957 223.453 431.901 223.387L421.532 211.641L409.681 221.537C409.557 221.641 409.396 221.692 409.235 221.677C409.073 221.663 408.924 221.585 408.819 221.461C408.715 221.337 408.665 221.176 408.679 221.014C408.693 220.853 408.771 220.704 408.896 220.599L421.203 210.311C421.317 210.2 421.469 210.138 421.628 210.138C421.786 210.138 421.939 210.2 422.052 210.311L432.813 222.513C432.87 222.569 432.915 222.636 432.946 222.71C432.976 222.784 432.992 222.863 432.992 222.943C432.992 223.024 432.976 223.103 432.946 223.177C432.915 223.251 432.87 223.318 432.813 223.374C432.761 223.446 432.692 223.504 432.613 223.544C432.533 223.583 432.446 223.603 432.357 223.602Z" fill="white"/>
<path d="M410.911 209.246C409.96 209.249 409.029 208.969 408.237 208.442C407.445 207.915 406.828 207.166 406.462 206.287C406.097 205.409 406.001 204.443 406.186 203.51C406.371 202.577 406.829 201.721 407.501 201.048C408.174 200.376 409.031 199.918 409.964 199.733C410.897 199.548 411.864 199.645 412.742 200.01C413.621 200.375 414.371 200.992 414.898 201.784C415.425 202.575 415.704 203.506 415.702 204.457C415.699 205.726 415.193 206.942 414.295 207.84C413.397 208.737 412.18 209.243 410.911 209.246V209.246ZM410.911 200.883C410.203 200.881 409.511 201.088 408.922 201.479C408.332 201.87 407.872 202.428 407.6 203.08C407.327 203.733 407.254 204.452 407.391 205.146C407.527 205.84 407.867 206.478 408.366 206.979C408.866 207.48 409.502 207.821 410.196 207.96C410.89 208.099 411.609 208.029 412.263 207.759C412.917 207.489 413.476 207.031 413.869 206.443C414.263 205.855 414.472 205.164 414.473 204.457C414.473 203.511 414.098 202.604 413.43 201.934C412.763 201.265 411.857 200.887 410.911 200.883V200.883Z" fill="white"/>
<path d="M369.958 263.693H366.548C364.154 263.693 362.214 265.633 362.214 268.027V273.348C362.214 275.742 364.154 277.682 366.548 277.682H369.958C372.352 277.682 374.293 275.742 374.293 273.348V268.027C374.293 265.633 372.352 263.693 369.958 263.693Z" fill="white"/>
<path d="M388.894 263.693H385.485C383.091 263.693 381.15 265.633 381.15 268.027V273.348C381.15 275.742 383.091 277.682 385.485 277.682H388.894C391.288 277.682 393.229 275.742 393.229 273.348V268.027C393.229 265.633 391.288 263.693 388.894 263.693Z" fill="white"/>
<path d="M407.831 263.693H404.421C402.027 263.693 400.086 265.633 400.086 268.027V273.348C400.086 275.742 402.027 277.682 404.421 277.682H407.831C410.225 277.682 412.166 275.742 412.166 273.348V268.027C412.166 265.633 410.225 263.693 407.831 263.693Z" fill="white"/>
<path d="M426.767 263.693H423.358C420.964 263.693 419.023 265.633 419.023 268.027V273.348C419.023 275.742 420.964 277.682 423.358 277.682H426.767C429.161 277.682 431.102 275.742 431.102 273.348V268.027C431.102 265.633 429.161 263.693 426.767 263.693Z" fill="white"/>
<path d="M431.457 154.368H361.859C361.778 154.37 361.697 154.356 361.622 154.326C361.547 154.296 361.478 154.252 361.42 154.195C361.362 154.138 361.316 154.071 361.285 153.996C361.254 153.921 361.237 153.841 361.237 153.76C361.237 153.596 361.303 153.438 361.419 153.321C361.536 153.205 361.694 153.139 361.859 153.139H431.457C431.622 153.139 431.78 153.205 431.896 153.321C432.013 153.438 432.078 153.596 432.078 153.76C432.078 153.841 432.062 153.921 432.031 153.996C431.999 154.071 431.953 154.138 431.895 154.195C431.838 154.252 431.769 154.296 431.694 154.326C431.618 154.356 431.538 154.37 431.457 154.368V154.368Z" fill="white"/>
<path d="M431.457 164.176H361.859C361.69 164.176 361.529 164.109 361.41 163.99C361.292 163.871 361.225 163.71 361.225 163.542C361.225 163.374 361.292 163.213 361.41 163.094C361.529 162.975 361.69 162.909 361.859 162.909H431.457C431.625 162.909 431.786 162.975 431.905 163.094C432.024 163.213 432.091 163.374 432.091 163.542C432.091 163.71 432.024 163.871 431.905 163.99C431.786 164.109 431.625 164.176 431.457 164.176Z" fill="white"/>
<path d="M431.457 173.983H361.859C361.694 173.983 361.536 173.917 361.419 173.801C361.303 173.685 361.237 173.527 361.237 173.362C361.237 173.281 361.254 173.201 361.285 173.126C361.316 173.052 361.362 172.984 361.42 172.927C361.478 172.871 361.547 172.826 361.622 172.796C361.697 172.767 361.778 172.752 361.859 172.754H431.457C431.538 172.752 431.618 172.767 431.694 172.796C431.769 172.826 431.838 172.871 431.895 172.927C431.953 172.984 431.999 173.052 432.031 173.126C432.062 173.201 432.078 173.281 432.078 173.362C432.078 173.527 432.013 173.685 431.896 173.801C431.78 173.917 431.622 173.983 431.457 173.983Z" fill="white"/>
<path d="M431.457 183.79H361.859C361.69 183.79 361.529 183.724 361.41 183.605C361.292 183.486 361.225 183.325 361.225 183.157C361.225 182.989 361.292 182.828 361.41 182.709C361.529 182.59 361.69 182.523 361.859 182.523H431.457C431.625 182.523 431.786 182.59 431.905 182.709C432.024 182.828 432.091 182.989 432.091 183.157C432.091 183.325 432.024 183.486 431.905 183.605C431.786 183.724 431.625 183.79 431.457 183.79Z" fill="white"/>
<path d="M431.457 244.535H361.859C361.69 244.535 361.529 244.468 361.41 244.349C361.292 244.23 361.225 244.069 361.225 243.901C361.225 243.733 361.292 243.572 361.41 243.453C361.529 243.334 361.69 243.268 361.859 243.268H431.457C431.625 243.268 431.786 243.334 431.905 243.453C432.024 243.572 432.091 243.733 432.091 243.901C432.091 244.069 432.024 244.23 431.905 244.349C431.786 244.468 431.625 244.535 431.457 244.535Z" fill="white"/>
<path d="M431.457 254.355H361.859C361.778 254.356 361.697 254.342 361.622 254.312C361.547 254.282 361.478 254.238 361.42 254.181C361.362 254.124 361.316 254.057 361.285 253.982C361.254 253.907 361.237 253.827 361.237 253.746C361.237 253.582 361.303 253.424 361.419 253.307C361.536 253.191 361.694 253.125 361.859 253.125H431.457C431.622 253.125 431.78 253.191 431.896 253.307C432.013 253.424 432.078 253.582 432.078 253.746C432.078 253.827 432.062 253.907 432.031 253.982C431.999 254.057 431.953 254.124 431.895 254.181C431.838 254.238 431.769 254.282 431.694 254.312C431.618 254.342 431.538 254.356 431.457 254.355Z" fill="white"/>
<path d="M418.49 59.0325C418.49 59.0325 420.049 52.3929 418.605 48.617C418.179 47.5522 417.428 46.6491 416.458 46.0369C415.488 45.4247 414.35 45.1347 413.205 45.2085C413.205 45.2085 402.71 42.8771 399.681 40.1401L401.05 44.9804C399.223 44.8522 397.44 44.3657 395.802 43.5486C395.591 44.3761 395.605 45.2451 395.843 46.0652C396.082 46.8853 396.536 47.6265 397.158 48.2115C396.403 48.5735 395.575 48.7614 394.737 48.7614C393.9 48.7614 393.072 48.5735 392.317 48.2115C392.317 48.2115 395.194 55.2692 401.886 54.547C406.246 53.9008 413.965 60.4896 418.49 59.0325Z" fill="white"/>
<path d="M417.007 59.8687C414.612 59.8687 411.811 58.6016 409.073 57.3345C406.335 56.0674 403.762 54.8004 401.924 55.0665C394.839 55.8901 391.784 48.4902 391.708 48.4142C391.663 48.2948 391.655 48.1643 391.687 48.0405C391.719 47.9167 391.788 47.8057 391.885 47.7225C391.982 47.6394 392.102 47.5882 392.229 47.5759C392.356 47.5636 392.484 47.5909 392.595 47.654C393.65 48.2043 394.877 48.3225 396.018 47.9834C395.555 47.3294 395.24 46.583 395.093 45.7956C394.947 45.0082 394.972 44.1984 395.168 43.4219C395.189 43.3352 395.229 43.2546 395.287 43.1864C395.344 43.1182 395.416 43.0643 395.498 43.0291C395.58 42.9946 395.669 42.9768 395.758 42.9768C395.847 42.9768 395.935 42.9946 396.018 43.0291C397.34 43.6372 398.738 44.0635 400.175 44.2962L399.047 40.3175C399.012 40.1881 399.019 40.051 399.067 39.9257C399.114 39.8005 399.201 39.6937 399.313 39.6206C399.427 39.5508 399.561 39.5205 399.694 39.5342C399.826 39.548 399.951 39.605 400.048 39.6966C402.786 42.2308 412.204 44.3722 413.218 44.6129C414.486 44.53 415.748 44.8539 416.819 45.5377C417.891 46.2214 418.716 47.2291 419.175 48.4142C420.683 52.3169 419.175 58.9057 419.086 59.1845C419.066 59.2868 419.019 59.3819 418.95 59.4599C418.881 59.5379 418.792 59.5959 418.693 59.628C418.148 59.7981 417.579 59.8794 417.007 59.8687V59.8687ZM402.355 53.7613C404.434 53.7613 406.944 54.9397 409.593 56.1688C412.622 57.588 415.753 59.0451 417.971 58.5383C418.262 57.1445 419.238 51.9114 418.034 48.845C417.655 47.8933 416.982 47.0869 416.114 46.5425C415.246 45.9981 414.227 45.7439 413.205 45.8167H413.015C412.635 45.728 404.738 43.9667 400.682 41.6226L401.582 44.803C401.608 44.8956 401.612 44.9927 401.594 45.0871C401.577 45.1815 401.538 45.2707 401.481 45.3479C401.422 45.4232 401.347 45.4842 401.262 45.5259C401.176 45.5677 401.082 45.5891 400.986 45.5886C399.34 45.4907 397.726 45.0957 396.221 44.4229C396.147 45.0356 396.225 45.6568 396.445 46.233C396.666 46.8092 397.024 47.323 397.488 47.73C397.564 47.7974 397.624 47.8819 397.661 47.9766C397.699 48.0713 397.713 48.1735 397.703 48.2748C397.693 48.3779 397.656 48.4765 397.596 48.561C397.536 48.6454 397.455 48.7128 397.361 48.7563C396.17 49.2926 394.849 49.4688 393.559 49.2632C394.725 51.1638 397.361 54.3315 401.785 53.812C401.974 53.7821 402.164 53.7652 402.355 53.7613V53.7613Z" fill="#231F20"/>
<path d="M427.35 114.594C427.35 114.594 436.502 94.587 435.386 81.4726C434.271 68.3582 425.677 67.5346 422.711 67.3698C419.745 67.2051 403.94 65.0764 398.172 72.1341C392.405 79.1918 393.901 113.188 393.901 113.188L427.35 114.594Z" fill="#68E1FD"/>
<path d="M393.229 106.46C386.498 109.537 380.07 113.236 374.027 117.509C368.678 121.132 365.648 159.386 365.648 159.386C365.648 159.386 366.751 165.531 373.862 164.568L392.583 121.956C392.583 121.956 399.262 106.295 393.229 106.46Z" fill="#231F20"/>
<path d="M372.404 165.253C370.692 165.296 369.019 164.74 367.674 163.68C366.329 162.62 365.397 161.124 365.04 159.45C365.034 159.399 365.034 159.348 365.04 159.298C365.357 155.344 368.259 120.651 373.684 116.964C379.772 112.685 386.243 108.978 393.014 105.89C393.084 105.871 393.159 105.871 393.229 105.89C393.703 105.854 394.178 105.942 394.608 106.147C395.037 106.351 395.405 106.665 395.675 107.055C398.046 110.54 393.673 120.993 393.141 122.26L374.42 164.885C374.377 164.981 374.31 165.064 374.225 165.126C374.141 165.188 374.042 165.228 373.938 165.24C373.428 165.279 372.915 165.283 372.404 165.253ZM366.308 159.323C366.447 159.982 367.664 164.581 373.482 163.973L392.063 121.69C393.331 118.649 396.373 110.185 394.687 107.752C394.547 107.548 394.357 107.382 394.135 107.271C393.914 107.16 393.667 107.108 393.419 107.119C386.772 110.192 380.41 113.847 374.407 118.041C370.199 120.816 367.119 148.679 366.308 159.323Z" fill="#231F20"/>
<path d="M428.098 110.388C428.098 110.388 401.214 111.161 394.89 110.236C394.89 110.236 394.535 110.312 389.896 118.852C385.257 127.392 391.924 166.431 391.924 166.431C391.924 166.431 398.033 172.893 402.862 171.968L408.579 127.455C408.579 127.455 418.326 127.747 423.789 123.869C427.54 121.145 427.376 115.329 428.098 110.388Z" fill="#231F20"/>
<path d="M401.874 172.678C397.032 172.678 391.734 167.103 391.467 166.849C391.385 166.762 391.331 166.651 391.315 166.532C391.036 164.936 384.661 127.253 389.351 118.56C394.04 109.868 394.421 109.691 394.763 109.691H394.978C401.176 110.616 427.819 109.855 428.085 109.843C428.176 109.837 428.267 109.852 428.351 109.888C428.435 109.923 428.51 109.976 428.57 110.045C428.63 110.113 428.674 110.195 428.697 110.283C428.721 110.371 428.724 110.463 428.707 110.552C428.58 111.465 428.466 112.415 428.364 113.365C427.895 117.648 427.414 122.07 424.093 124.452C419.276 127.899 411.316 128.152 409.124 128.152L403.471 171.994C403.455 172.123 403.398 172.244 403.309 172.339C403.221 172.435 403.104 172.5 402.976 172.526C402.614 172.609 402.245 172.66 401.874 172.678ZM392.494 166.14C393.343 167.001 398.299 171.791 402.304 171.423L407.97 127.379C407.986 127.226 408.061 127.084 408.18 126.985C408.298 126.886 408.45 126.836 408.604 126.847C408.705 126.847 418.199 127.075 423.383 123.375C426.248 121.31 426.704 117.167 427.186 113.15C427.262 112.44 427.338 111.718 427.426 111.021C423.091 111.135 401.481 111.667 395.194 110.882C394.826 111.414 393.698 113.201 390.466 119.143C386.106 127.113 392 163.187 392.494 166.14Z" fill="#231F20"/>
<path d="M398.16 72.134C398.16 72.134 393.901 80.3321 391.391 84.5389C388.991 88.1482 386.326 91.5745 383.419 94.7896C383.419 94.7896 364.089 101.657 363.975 102.025C363.861 102.392 365.801 108.892 365.801 108.892C365.801 108.892 386.08 107.435 389.427 105.851C392.773 104.267 399.567 96.4749 399.567 96.4749L398.16 72.134Z" fill="#68E1FD"/>
<path d="M406.031 67.7374L407.184 74.7317C407.905 75.7699 408.98 76.5099 410.207 76.8131C411.434 77.1164 412.73 76.962 413.851 76.3789C418.275 74.4276 418.275 71.0825 418.275 71.0825L415.917 58.1581C415.917 58.1581 411.836 56.5743 409.719 48.6169C409.719 48.6169 399.579 49.3899 400.276 53.1785C400.276 53.1785 400.15 60.3122 401.227 63.784C401.614 64.8044 402.26 65.706 403.103 66.3994C403.946 67.0929 404.955 67.5541 406.031 67.7374V67.7374Z" fill="white"/>
<path d="M411.367 77.5701C410.44 77.5408 409.533 77.2966 408.717 76.8568C407.901 76.417 407.198 75.7936 406.665 75.0359C406.624 74.9645 406.594 74.8877 406.576 74.8078L405.486 68.2063C404.373 67.984 403.338 67.4739 402.484 66.7268C401.63 65.9798 400.987 65.0219 400.619 63.9488C399.516 60.4136 399.63 53.432 399.63 53.1405C399.582 52.7924 399.606 52.438 399.702 52.0999C399.798 51.7618 399.964 51.4474 400.188 51.1766C402.178 48.6424 408.883 48.0342 409.643 47.9835C409.787 47.9725 409.931 48.0121 410.049 48.0953C410.167 48.1786 410.252 48.3003 410.29 48.4396C412.28 55.9281 416.082 57.55 416.12 57.5627C416.217 57.5999 416.303 57.6614 416.37 57.7412C416.436 57.8211 416.481 57.9167 416.501 58.0188L418.858 70.9432C418.858 71.2093 418.858 74.8585 414.105 76.9239C413.247 77.3275 412.315 77.5476 411.367 77.5701ZM407.767 74.491C408.42 75.3762 409.369 75.9974 410.442 76.2416C411.514 76.4858 412.639 76.3367 413.611 75.8215C417.54 74.0982 417.641 71.1966 417.641 71.0699L415.347 58.5764C414.308 58.0315 411.114 55.8394 409.238 49.2759C407.032 49.504 402.457 50.2896 401.151 51.9621C401.024 52.1128 400.932 52.2899 400.881 52.4805C400.831 52.6712 400.823 52.8707 400.86 53.0645C400.86 53.2546 400.758 60.2616 401.797 63.6067C402.132 64.5194 402.704 65.3262 403.455 65.9433C404.206 66.5605 405.109 66.9656 406.069 67.1166L406.322 67.1926C406.404 67.239 406.475 67.3027 406.53 67.3793C406.585 67.4559 406.622 67.5435 406.639 67.6361L407.767 74.491Z" fill="#231F20"/>
<path d="M413.205 58.4116C413.255 57.7571 413.512 57.1355 413.94 56.6377C414.36 56.1901 414.853 55.8173 415.398 55.5353C415.682 55.3549 416.002 55.2382 416.336 55.1932C416.574 55.1911 416.81 55.2341 417.033 55.3199C417.552 55.4819 417.999 55.8175 418.3 56.2702C418.498 56.663 418.598 57.0977 418.592 57.5373C418.628 58.0254 418.593 58.516 418.49 58.9945C418.381 59.4698 418.177 59.9185 417.892 60.3144C417.607 60.7104 417.246 61.0456 416.83 61.3006C415.988 61.804 414.985 61.9629 414.029 61.7441" fill="white"/>
<path d="M414.891 62.5042C414.549 62.5003 414.209 62.4578 413.877 62.3775C413.717 62.3385 413.58 62.238 413.494 62.0979C413.409 61.9578 413.382 61.7896 413.42 61.63C413.44 61.5513 413.474 61.4773 413.523 61.4122C413.571 61.3471 413.631 61.2923 413.701 61.251C413.771 61.2097 413.848 61.1828 413.928 61.1717C414.008 61.1606 414.09 61.1656 414.168 61.1865C414.968 61.367 415.807 61.2356 416.513 60.819C417.207 60.3819 417.703 59.6907 417.895 58.893C417.979 58.4762 418.008 58.0504 417.983 57.6259C417.995 57.2756 417.921 56.9278 417.768 56.6123C417.534 56.273 417.189 56.0264 416.792 55.9154C416.644 55.8683 416.491 55.8385 416.336 55.8267C416.095 55.8708 415.865 55.9658 415.664 56.1054C415.19 56.347 414.761 56.6685 414.396 57.0558C414.05 57.4511 413.845 57.9503 413.813 58.4749C413.8 58.6385 413.724 58.7906 413.602 58.8993C413.479 59.008 413.318 59.0648 413.154 59.0578C413.073 59.053 412.994 59.032 412.921 58.9961C412.848 58.9602 412.783 58.91 412.73 58.8486C412.677 58.7872 412.637 58.7158 412.611 58.6385C412.586 58.5613 412.577 58.4798 412.584 58.3989C412.639 57.61 412.946 56.8595 413.459 56.2575C413.919 55.7415 414.469 55.3123 415.081 54.9904C415.465 54.7525 415.899 54.6052 416.348 54.5596C416.668 54.5588 416.986 54.6145 417.286 54.7243C417.97 54.9294 418.552 55.381 418.921 55.9914C419.175 56.4805 419.306 57.0242 419.302 57.5753C419.333 58.1185 419.295 58.6636 419.188 59.1971C418.963 60.1444 418.425 60.9884 417.662 61.5929C416.898 62.1975 415.953 62.5274 414.979 62.5296L414.891 62.5042Z" fill="#231F20"/>
<path d="M406.791 56.5361C406.791 56.5361 404.89 60.4895 405.524 61.0343C406.158 61.5792 407.742 60.9329 407.742 60.9329" fill="white"/>
<path d="M406.335 61.8581C405.917 61.879 405.505 61.7535 405.169 61.5033C404.903 61.2879 404.13 60.6543 406.246 56.2702C406.318 56.1261 406.442 56.0153 406.593 55.9609C406.744 55.9066 406.911 55.913 407.058 55.9788C407.132 56.0127 407.198 56.0612 407.253 56.1213C407.308 56.1815 407.351 56.252 407.378 56.3289C407.405 56.4057 407.417 56.4872 407.412 56.5685C407.407 56.6499 407.385 56.7294 407.349 56.8024C406.733 57.9965 406.306 59.2788 406.082 60.6037C406.593 60.665 407.111 60.5815 407.577 60.3629C407.729 60.3029 407.898 60.3037 408.049 60.3651C408.2 60.4264 408.322 60.5437 408.389 60.6924C408.42 60.768 408.435 60.8491 408.435 60.9309C408.434 61.0127 408.418 61.0936 408.386 61.1689C408.354 61.2443 408.308 61.3126 408.249 61.37C408.191 61.4274 408.122 61.4727 408.046 61.5033C407.502 61.7235 406.922 61.8437 406.335 61.8581V61.8581Z" fill="#231F20"/>
<path d="M409.92 56.3721C410.254 56.3382 410.486 55.9325 410.439 55.4661C410.392 54.9996 410.082 54.649 409.748 54.6829C409.414 54.7169 409.181 55.1225 409.228 55.589C409.276 56.0555 409.585 56.4061 409.92 56.3721Z" fill="#231F20"/>
<path d="M404.787 57.276C405.122 57.2443 405.357 56.8403 405.313 56.3735C405.269 55.9068 404.962 55.554 404.628 55.5856C404.293 55.6172 404.058 56.0212 404.102 56.488C404.146 56.9548 404.453 57.3076 404.787 57.276Z" fill="#231F20"/>
<path d="M407.349 64.9624C406.188 64.9379 405.041 64.7017 403.965 64.2655C403.89 64.2339 403.823 64.1876 403.766 64.1294C403.709 64.0713 403.665 64.0024 403.636 63.9268C403.606 63.8512 403.592 63.7705 403.594 63.6894C403.596 63.6083 403.615 63.5285 403.648 63.4546C403.717 63.3082 403.84 63.1937 403.991 63.1348C404.141 63.0759 404.309 63.077 404.459 63.1378C404.459 63.1378 407.336 64.4049 409.276 63.3025C409.784 62.9731 410.208 62.5305 410.516 62.0095C410.824 61.4884 411.007 60.9031 411.05 60.2995C411.077 60.1315 411.17 59.981 411.308 59.8812C411.445 59.7814 411.617 59.7405 411.785 59.7673C411.953 59.7942 412.104 59.8868 412.204 60.0246C412.304 60.1624 412.345 60.3342 412.318 60.5022C412.248 61.2918 411.993 62.0538 411.575 62.7272C411.157 63.4006 410.586 63.9665 409.909 64.3796C409.122 64.7952 408.239 64.9963 407.349 64.9624V64.9624Z" fill="#231F20"/>
<path d="M406.031 67.7374C406.031 67.7374 410.543 68.0161 412.875 66.1282C412.875 66.1282 411 72.4636 406.829 72.4636L406.031 67.7374Z" fill="#231F20"/>
<path d="M406.868 73.1605C406.722 73.1617 406.581 73.1095 406.471 73.0138C406.361 72.918 406.29 72.7854 406.272 72.641L405.473 67.8514C405.456 67.7589 405.46 67.6637 405.487 67.5734C405.513 67.4831 405.561 67.4003 405.625 67.3319C405.687 67.2627 405.763 67.2085 405.849 67.1734C405.935 67.1382 406.027 67.1231 406.12 67.1291C406.12 67.1291 410.429 67.3699 412.533 65.6593C412.637 65.5802 412.762 65.5356 412.892 65.5318C413.022 65.5279 413.15 65.565 413.258 65.6378C413.366 65.7107 413.448 65.8155 413.493 65.9376C413.538 66.0597 413.544 66.1928 413.509 66.3182C413.433 66.5843 411.469 73.0845 406.88 73.1605H406.868ZM406.868 68.3836L407.451 71.8807C409.605 71.5133 411.038 69.1565 411.785 67.5346C410.173 68.1167 408.468 68.4001 406.753 68.3709L406.868 68.3836Z" fill="#231F20"/>
<path d="M431.102 70.6264C434.714 71.26 449.329 105.041 444.322 108.893C436.514 114.911 409.339 108.893 409.339 108.893L411.557 98.4137C411.557 98.4137 429.023 98.9079 429.302 95.322C429.581 91.7362 419.162 75.1373 420.506 72.6538C421.849 70.1703 431.102 70.6264 431.102 70.6264Z" fill="#68E1FD"/>
<path d="M413.433 101.809C410.532 101.994 407.62 101.854 404.751 101.391C402.627 100.875 400.447 100.624 398.261 100.644C395.381 100.781 392.549 101.429 389.896 102.557C389.783 102.592 389.682 102.658 389.604 102.747C389.351 103.102 389.959 103.457 390.403 103.469C391.554 103.492 392.703 103.347 393.812 103.038C391.066 104.053 388.469 105.434 386.093 107.144C385.814 107.334 385.523 107.638 385.65 107.942C385.776 108.246 386.334 108.195 386.689 108.031L392.925 105.18C391.307 105.828 389.808 106.74 388.489 107.879C388.311 108.043 388.096 108.259 388.159 108.5C388.223 108.74 388.869 108.842 389.262 108.652C391.162 107.702 392.977 106.591 394.687 105.332L390.884 108.297C390.884 108.601 391.176 108.867 391.493 108.88C391.81 108.86 392.117 108.755 392.38 108.576L396.677 106.041L394.002 107.917C393.571 108.208 393.09 108.69 393.305 109.184C393.521 109.678 394.37 109.564 394.928 109.323C397.132 108.368 399.436 107.662 401.798 107.22C402.62 106.952 403.471 106.777 404.333 106.7C405.66 106.876 406.97 107.164 408.249 107.562C410.201 107.993 412.14 108.436 414.08 108.829" fill="white"/>
<path d="M393.926 110.134C393.741 110.138 393.556 110.108 393.381 110.046C393.238 109.993 393.107 109.912 392.996 109.808C392.885 109.703 392.796 109.577 392.735 109.437C392.679 109.314 392.649 109.18 392.646 109.045C392.297 109.291 391.882 109.427 391.455 109.437C391.282 109.429 391.114 109.385 390.959 109.308C390.804 109.232 390.667 109.125 390.555 108.994C390.484 108.909 390.424 108.815 390.377 108.715C390.111 108.867 389.832 109.007 389.553 109.146C389.342 109.262 389.108 109.332 388.867 109.349C388.627 109.367 388.385 109.332 388.159 109.247C388.03 109.187 387.917 109.097 387.829 108.984C387.741 108.872 387.68 108.741 387.652 108.601C387.627 108.476 387.627 108.346 387.652 108.221L386.968 108.538C386.578 108.743 386.123 108.788 385.7 108.664C385.581 108.621 385.472 108.554 385.381 108.467C385.289 108.38 385.217 108.274 385.168 108.158C385.054 107.917 384.914 107.296 385.789 106.675C387.187 105.667 388.662 104.769 390.2 103.989C389.975 103.963 389.759 103.888 389.568 103.767C389.377 103.646 389.216 103.484 389.097 103.292C389.028 103.151 388.998 102.994 389.012 102.838C389.025 102.682 389.081 102.532 389.173 102.405C389.307 102.232 389.487 102.1 389.693 102.025C392.41 100.869 395.312 100.208 398.261 100.074C400.218 100.027 402.174 100.232 404.079 100.682L404.878 100.821C407.709 101.277 410.583 101.417 413.446 101.239V101.239C413.593 101.239 413.734 101.296 413.84 101.397C413.947 101.499 414.01 101.637 414.016 101.784C414.017 101.932 413.96 102.075 413.859 102.183C413.758 102.292 413.619 102.357 413.471 102.367C410.528 102.539 407.574 102.395 404.662 101.936L403.851 101.784C402.032 101.358 400.167 101.158 398.299 101.189C395.633 101.323 393.008 101.897 390.529 102.886C391.592 102.909 392.651 102.773 393.673 102.481C393.814 102.434 393.968 102.445 394.101 102.511C394.234 102.578 394.336 102.695 394.383 102.836C394.43 102.977 394.419 103.131 394.352 103.264C394.286 103.397 394.169 103.498 394.028 103.545C391.389 104.518 388.888 105.83 386.587 107.448L391.239 105.319C391.721 105.079 392.203 104.85 392.697 104.66C392.833 104.602 392.987 104.599 393.125 104.654C393.263 104.709 393.373 104.816 393.432 104.952C393.491 105.088 393.493 105.242 393.438 105.38C393.384 105.517 393.277 105.628 393.14 105.687L391.734 106.333C390.788 106.826 389.895 107.416 389.072 108.094C390.926 107.166 392.695 106.077 394.357 104.838C394.416 104.793 394.483 104.761 394.555 104.742C394.626 104.724 394.701 104.72 394.774 104.731C394.847 104.741 394.917 104.766 394.981 104.804C395.044 104.842 395.099 104.892 395.143 104.952C395.188 105.01 395.222 105.076 395.241 105.147C395.261 105.219 395.266 105.293 395.256 105.366C395.247 105.439 395.223 105.509 395.186 105.573C395.149 105.637 395.1 105.693 395.042 105.737L391.974 108.069H392.05L396.347 105.535C396.472 105.478 396.613 105.469 396.744 105.508C396.875 105.547 396.988 105.632 397.062 105.747C397.136 105.862 397.166 106 397.146 106.136C397.127 106.271 397.059 106.395 396.956 106.485L394.269 108.36C393.838 108.664 393.749 108.892 393.762 108.918C394.066 108.977 394.382 108.923 394.649 108.766C396.898 107.789 399.249 107.067 401.658 106.612L402.469 106.396C403.071 106.203 403.7 106.104 404.332 106.105C405.301 106.181 406.258 106.368 407.184 106.662C407.59 106.776 407.983 106.89 408.363 106.966L414.194 108.31C414.265 108.326 414.333 108.357 414.393 108.4C414.452 108.442 414.503 108.496 414.542 108.559C414.581 108.621 414.607 108.691 414.619 108.763C414.631 108.835 414.629 108.91 414.612 108.981C414.595 109.053 414.565 109.12 414.522 109.18C414.479 109.24 414.425 109.29 414.363 109.329C414.3 109.368 414.231 109.394 414.158 109.406C414.086 109.418 414.012 109.416 413.94 109.399C412.001 108.956 410.062 108.5 408.11 108.132C407.717 108.044 407.311 107.929 406.842 107.815C406.018 107.551 405.168 107.377 404.307 107.296C403.78 107.305 403.258 107.399 402.761 107.575C402.469 107.651 402.178 107.739 401.874 107.79C399.546 108.245 397.277 108.954 395.105 109.906C394.731 110.059 394.33 110.136 393.926 110.134V110.134Z" fill="#231F20"/>
<path d="M400.036 75.0991C399.072 76.0748 396.651 91.4319 395.764 98.6797Z" fill="white"/>
<path d="M395.764 99.2498H395.688C395.542 99.2308 395.41 99.1549 395.319 99.0386C395.229 98.9223 395.188 98.775 395.206 98.6289C395.751 94.1181 398.363 76.0114 399.643 74.7063C399.751 74.622 399.886 74.5798 400.024 74.5873C400.161 74.5948 400.291 74.6515 400.389 74.7471C400.488 74.8426 400.549 74.9706 400.561 75.1074C400.573 75.2443 400.535 75.3808 400.454 75.4919C399.63 76.6196 397.298 90.773 396.322 98.7683C396.301 98.9016 396.233 99.023 396.131 99.1112C396.029 99.1993 395.899 99.2485 395.764 99.2498Z" fill="#231F20"/>
<path d="M363.582 113.137L364.013 116.014L403.787 121.817L403.116 118.852L363.582 113.137Z" fill="white"/>
<path d="M403.788 122.438H403.699L363.925 116.622C363.794 116.602 363.673 116.541 363.58 116.447C363.486 116.354 363.425 116.233 363.405 116.102L362.974 113.226C362.956 113.131 362.962 113.032 362.99 112.939C363.019 112.847 363.07 112.762 363.139 112.694C363.209 112.628 363.294 112.578 363.386 112.547C363.477 112.516 363.575 112.506 363.671 112.516L403.204 118.244C403.327 118.261 403.44 118.316 403.531 118.399C403.621 118.483 403.684 118.592 403.711 118.713L404.333 121.69C404.358 121.785 404.359 121.885 404.335 121.981C404.31 122.076 404.262 122.164 404.193 122.235C404.089 122.352 403.944 122.425 403.788 122.438ZM364.495 115.469L402.938 121.082L402.558 119.397L364.254 113.86L364.495 115.469Z" fill="#231F20"/>
<path d="M363.582 113.137C363.582 113.137 372.632 105.37 372.937 105.446C373.241 105.522 413.915 110.388 413.915 110.388L403.065 118.852L363.582 113.137Z" fill="white"/>
<path d="M403.065 119.473L363.494 113.707C363.376 113.689 363.266 113.637 363.176 113.559C363.087 113.48 363.021 113.378 362.987 113.264C362.952 113.151 362.952 113.031 362.986 112.918C363.019 112.806 363.086 112.705 363.177 112.63C372.48 104.648 372.683 104.711 373.076 104.8C373.684 104.901 400.112 108.069 413.991 109.729C414.113 109.745 414.228 109.797 414.32 109.878C414.413 109.959 414.479 110.066 414.511 110.185C414.547 110.302 414.546 110.427 414.507 110.543C414.468 110.659 414.394 110.76 414.295 110.831L403.496 119.295C403.439 119.352 403.372 119.396 403.298 119.427C403.224 119.457 403.145 119.473 403.065 119.473ZM365.04 112.719L402.964 118.206L412.394 110.819C400.15 109.349 375.814 106.434 373.101 106.08C372.189 106.65 368.069 110.109 365.04 112.719Z" fill="#231F20"/>
<path d="M403.787 121.817L414.168 113.137L413.915 110.388L403.116 118.852L403.787 121.817Z" fill="white"/>
<path d="M403.788 122.438C403.725 122.45 403.66 122.45 403.597 122.438C403.496 122.408 403.404 122.35 403.333 122.272C403.262 122.194 403.213 122.098 403.192 121.994L402.52 119.029C402.491 118.916 402.496 118.797 402.534 118.686C402.573 118.576 402.643 118.479 402.735 118.408L413.535 109.906C413.622 109.838 413.727 109.794 413.838 109.779C413.948 109.765 414.061 109.781 414.163 109.825C414.265 109.869 414.354 109.94 414.42 110.03C414.485 110.12 414.525 110.226 414.536 110.337L414.777 113.087C414.787 113.186 414.773 113.287 414.736 113.38C414.698 113.473 414.638 113.555 414.561 113.619L404.18 122.311C404.067 122.395 403.929 122.44 403.788 122.438V122.438ZM403.788 119.093L404.155 120.702L413.509 112.871L413.395 111.604L403.788 119.093Z" fill="#231F20"/>
<path d="M363.582 113.137L355.939 87.5293L397.868 94.6757L403.116 118.852L363.582 113.137Z" fill="white"/>
<path d="M403.065 119.473L363.494 113.708C363.375 113.692 363.263 113.641 363.173 113.562C363.083 113.483 363.018 113.38 362.987 113.264L355.382 87.6688C355.352 87.5681 355.349 87.4616 355.372 87.3593C355.395 87.2571 355.444 87.1623 355.514 87.0839C355.583 87.0054 355.671 86.9459 355.77 86.9108C355.869 86.8757 355.975 86.8662 356.079 86.8832L397.995 94.0676C398.115 94.0875 398.226 94.1428 398.314 94.2264C398.402 94.3099 398.463 94.4179 398.489 94.5364L403.711 118.776C403.734 118.872 403.733 118.973 403.706 119.068C403.679 119.163 403.629 119.25 403.559 119.321C403.493 119.381 403.415 119.426 403.329 119.452C403.244 119.478 403.153 119.485 403.065 119.473V119.473ZM364.001 112.58L402.279 118.117L397.349 95.208L356.789 88.3023L364.001 112.58Z" fill="#231F20"/>
<path d="M422.559 112.542H422.458L413.978 111.084C413.837 111.059 413.708 110.986 413.614 110.878C413.52 110.769 413.465 110.632 413.459 110.489L413.192 100.352C413.185 100.196 413.24 100.044 413.344 99.9278C413.449 99.8117 413.594 99.7411 413.75 99.7313L428.745 98.1855L422.078 75.2638C422.034 75.1075 422.054 74.9406 422.132 74.7985C422.21 74.6564 422.341 74.5506 422.496 74.5035C422.574 74.4802 422.656 74.4724 422.737 74.4808C422.819 74.4892 422.897 74.5135 422.969 74.5523C423.041 74.5912 423.104 74.6438 423.156 74.7071C423.207 74.7705 423.246 74.8434 423.269 74.9217L430.126 98.5022C430.152 98.587 430.159 98.6766 430.145 98.7643C430.132 98.8519 430.1 98.9356 430.05 99.0091C430 99.0839 429.934 99.1474 429.858 99.1954C429.781 99.2434 429.696 99.2749 429.606 99.2878L414.396 100.846L414.65 109.931L422.635 111.3C422.718 111.307 422.799 111.331 422.873 111.37C422.947 111.409 423.013 111.462 423.067 111.526C423.12 111.59 423.161 111.664 423.185 111.744C423.21 111.823 423.219 111.907 423.212 111.99C423.204 112.074 423.181 112.155 423.142 112.229C423.103 112.303 423.05 112.368 422.986 112.422C422.922 112.475 422.848 112.516 422.768 112.541C422.688 112.565 422.604 112.574 422.521 112.567L422.559 112.542Z" fill="#231F20"/>
<path d="M366.929 152.556C366.23 151.911 365.498 151.302 364.736 150.732C363.088 149.465 359.552 147.678 358.538 150.592C357.904 152.392 358.88 154.787 359.552 156.446C360.879 159.621 362.901 162.457 365.471 164.746C367.714 166.773 374.863 169.7 374.343 164.049C374.206 163.026 373.879 162.038 373.38 161.135C371.767 157.908 369.581 155.001 366.929 152.556V152.556Z" fill="white"/>
<path d="M371.707 167.901C369.273 167.704 366.963 166.746 365.103 165.164C362.469 162.819 360.395 159.914 359.032 156.662C358.348 154.964 357.308 152.417 358.005 150.402C358.13 149.98 358.355 149.594 358.662 149.279C358.969 148.963 359.348 148.727 359.767 148.59C361.833 147.97 364.558 149.858 365.078 150.288C365.853 150.867 366.597 151.484 367.309 152.138V152.138C370.02 154.627 372.254 157.59 373.9 160.881C374.429 161.848 374.772 162.905 374.914 163.998C375.117 166.203 374.204 167.153 373.393 167.546C372.867 167.797 372.289 167.919 371.707 167.901V167.901ZM360.654 149.591C360.466 149.589 360.278 149.615 360.097 149.667C359.845 149.751 359.618 149.897 359.439 150.092C359.259 150.287 359.132 150.525 359.07 150.783C358.512 152.379 359.45 154.698 360.071 156.231C361.367 159.328 363.343 162.095 365.851 164.328C367.448 165.785 371.2 167.394 372.899 166.545C373.621 166.178 373.913 165.379 373.798 164.1C373.66 163.148 373.351 162.23 372.886 161.388C371.313 158.215 369.164 155.362 366.548 152.975C365.864 152.341 365.141 151.707 364.406 151.188C363.334 150.308 362.032 149.754 360.654 149.591V149.591Z" fill="#231F20"/>
<path d="M391.075 155.712C390.586 155.37 389.996 155.204 389.401 155.243C389.029 155.332 388.687 155.52 388.413 155.788C387.902 156.314 387.516 156.948 387.283 157.643C387.051 158.338 386.978 159.077 387.069 159.804C387.251 161.256 387.703 162.661 388.4 163.948C390.339 167.977 392.963 171.88 396.854 174.084C397.553 174.499 398.315 174.794 399.11 174.959C406.031 176.226 403.166 169.358 401.468 166.254C399.061 161.835 395.459 158.182 391.075 155.712Z" fill="white"/>
<path d="M400.593 175.643C400.062 175.638 399.532 175.587 399.009 175.491C398.155 175.316 397.337 174.999 396.588 174.553C393.166 172.627 390.327 169.244 387.893 164.201C387.173 162.847 386.7 161.375 386.499 159.855C386.398 159.042 386.484 158.217 386.75 157.442C387.015 156.667 387.454 155.962 388.032 155.382C388.38 155.036 388.82 154.799 389.3 154.698C390.02 154.629 390.741 154.813 391.341 155.217C395.809 157.739 399.487 161.456 401.962 165.95C403.23 168.205 405.042 172.285 403.521 174.427C403.171 174.855 402.721 175.19 402.21 175.402C401.699 175.614 401.144 175.697 400.593 175.643V175.643ZM389.642 155.788H389.49C389.225 155.856 388.984 155.997 388.793 156.193C388.342 156.658 388.003 157.218 387.801 157.833C387.599 158.447 387.54 159.1 387.627 159.741C387.799 161.126 388.229 162.467 388.894 163.694C391.214 168.535 393.964 171.753 397.108 173.552C397.749 173.94 398.452 174.214 399.186 174.363C400.923 174.68 402.064 174.465 402.571 173.755C403.559 172.374 402.38 169.092 400.948 166.482C398.591 162.176 395.079 158.613 390.808 156.193C390.458 155.967 390.058 155.828 389.642 155.788V155.788Z" fill="#231F20"/>
<path d="M388.299 133.981C388.146 133.981 387.998 133.924 387.885 133.821C387.773 133.718 387.703 133.576 387.69 133.423C387.69 133.145 386.993 126.34 388.159 122.463C388.182 122.386 388.219 122.313 388.27 122.251C388.32 122.188 388.382 122.135 388.453 122.096C388.523 122.058 388.601 122.033 388.681 122.024C388.761 122.015 388.842 122.022 388.92 122.045C388.997 122.067 389.069 122.105 389.132 122.155C389.195 122.206 389.248 122.268 389.286 122.338C389.325 122.409 389.35 122.487 389.359 122.567C389.367 122.647 389.36 122.728 389.338 122.805C388.248 126.454 388.894 133.246 388.907 133.309C388.921 133.472 388.871 133.634 388.766 133.76C388.662 133.885 388.512 133.965 388.349 133.981H388.299Z" fill="white"/>
<path d="M314.061 86.2241H62.2596C56.9744 86.2241 52.69 90.5072 52.69 95.7907V268.508C52.69 273.791 56.9744 278.074 62.2596 278.074H314.061C319.346 278.074 323.631 273.791 323.631 268.508V95.7907C323.631 90.5072 319.346 86.2241 314.061 86.2241Z" fill="white"/>
<path d="M314.061 278.695H62.2596C59.5754 278.679 57.0059 277.606 55.1079 275.708C53.2099 273.811 52.1362 271.242 52.1196 268.559V95.7908C52.1196 93.1024 53.1879 90.524 55.0895 88.623C56.9912 86.722 59.5703 85.6541 62.2596 85.6541H314.061C316.75 85.6541 319.33 86.722 321.231 88.623C323.133 90.524 324.201 93.1024 324.201 95.7908V268.521C324.206 269.855 323.948 271.177 323.44 272.412C322.933 273.646 322.187 274.768 321.245 275.713C320.303 276.658 319.183 277.408 317.95 277.92C316.718 278.432 315.396 278.695 314.061 278.695V278.695ZM62.2596 86.8451C59.8851 86.8451 57.6077 87.7872 55.9275 89.4645C54.2473 91.1417 53.3017 93.4171 53.2984 95.7908V268.521C53.3017 270.894 54.2473 273.17 55.9275 274.847C57.6077 276.524 59.8851 277.466 62.2596 277.466H314.061C316.433 277.463 318.708 276.519 320.385 274.843C322.062 273.166 323.006 270.892 323.01 268.521V95.7908C323.006 93.4193 322.062 91.1459 320.385 89.4689C318.708 87.792 316.433 86.8485 314.061 86.8451H62.2596Z" fill="#231F20"/>
<path d="M313.605 111.034H62.7032V267.989H313.605V111.034Z" fill="#231F20"/>
<path d="M313.605 268.622H62.7032C62.5352 268.622 62.374 268.555 62.2551 268.437C62.1363 268.318 62.0695 268.157 62.0695 267.989V111.034C62.0695 110.866 62.1363 110.705 62.2551 110.586C62.374 110.467 62.5352 110.4 62.7032 110.4H313.668C313.836 110.4 313.998 110.467 314.116 110.586C314.235 110.705 314.302 110.866 314.302 111.034V267.989C314.302 268.077 314.284 268.165 314.248 268.247C314.213 268.328 314.16 268.401 314.095 268.461C314.029 268.52 313.951 268.565 313.867 268.593C313.783 268.621 313.693 268.631 313.605 268.622ZM63.375 267.355H313.073V111.667H63.375V267.355Z" fill="#231F20"/>
<path d="M313.605 96.3103H62.7032V111.034H313.605V96.3103Z" fill="#68E1FD"/>
<path d="M313.605 111.667H62.7032C62.5352 111.667 62.374 111.601 62.2551 111.482C62.1363 111.363 62.0695 111.202 62.0695 111.034V96.3103C62.0695 96.1423 62.1363 95.9811 62.2551 95.8623C62.374 95.7435 62.5352 95.6768 62.7032 95.6768H313.668C313.836 95.6768 313.998 95.7435 314.116 95.8623C314.235 95.9811 314.302 96.1423 314.302 96.3103V111.034C314.302 111.123 314.284 111.211 314.248 111.292C314.213 111.373 314.16 111.446 314.095 111.506C314.029 111.566 313.951 111.611 313.867 111.639C313.783 111.667 313.693 111.676 313.605 111.667ZM63.375 110.4H313.073V96.9438H63.375V110.4Z" fill="#68E1FD"/>
<path d="M113.01 126.657H91.4628C91.3819 126.659 91.3014 126.644 91.2261 126.614C91.1508 126.585 91.0822 126.54 91.0244 126.483C90.9665 126.427 90.9206 126.359 90.8892 126.285C90.8579 126.21 90.8417 126.13 90.8417 126.049C90.8417 125.884 90.9072 125.726 91.0236 125.61C91.1401 125.493 91.2981 125.428 91.4628 125.428H113.01C113.091 125.428 113.171 125.444 113.246 125.475C113.321 125.507 113.388 125.553 113.445 125.611C113.502 125.668 113.546 125.737 113.576 125.812C113.606 125.887 113.62 125.968 113.619 126.049C113.62 126.129 113.606 126.209 113.576 126.284C113.546 126.358 113.501 126.426 113.444 126.483C113.388 126.54 113.32 126.584 113.245 126.614C113.171 126.644 113.091 126.659 113.01 126.657Z" fill="white"/>
<path d="M161.619 126.657H118.524C118.444 126.659 118.364 126.644 118.289 126.614C118.214 126.584 118.147 126.54 118.09 126.483C118.033 126.426 117.988 126.358 117.958 126.284C117.928 126.209 117.914 126.129 117.916 126.049C117.914 125.968 117.928 125.887 117.958 125.812C117.988 125.737 118.033 125.668 118.089 125.611C118.146 125.553 118.213 125.507 118.288 125.475C118.363 125.444 118.443 125.428 118.524 125.428H161.619C161.784 125.428 161.942 125.493 162.058 125.61C162.175 125.726 162.24 125.884 162.24 126.049C162.24 126.13 162.224 126.21 162.193 126.285C162.161 126.359 162.115 126.427 162.057 126.483C162 126.54 161.931 126.585 161.856 126.614C161.78 126.644 161.7 126.659 161.619 126.657V126.657Z" fill="#68E1FD"/>
<path d="M176.512 135.679H133.417C133.249 135.679 133.088 135.612 132.969 135.493C132.85 135.374 132.783 135.213 132.783 135.045C132.783 134.877 132.85 134.716 132.969 134.597C133.088 134.478 133.249 134.412 133.417 134.412H176.512C176.68 134.412 176.841 134.478 176.96 134.597C177.079 134.716 177.146 134.877 177.146 135.045C177.146 135.213 177.079 135.374 176.96 135.493C176.841 135.612 176.68 135.679 176.512 135.679Z" fill="#68E1FD"/>
<path d="M118.068 135.679H96.5201C96.3521 135.679 96.1909 135.612 96.072 135.493C95.9532 135.374 95.8864 135.213 95.8864 135.045C95.8864 134.877 95.9532 134.716 96.072 134.597C96.1909 134.478 96.3521 134.412 96.5201 134.412H118.068C118.236 134.412 118.397 134.478 118.516 134.597C118.635 134.716 118.701 134.877 118.701 135.045C118.701 135.213 118.635 135.374 118.516 135.493C118.397 135.612 118.236 135.679 118.068 135.679Z" fill="white"/>
<path d="M123.138 144.688H101.59C101.425 144.688 101.267 144.622 101.151 144.506C101.034 144.389 100.969 144.231 100.969 144.067C100.969 143.986 100.985 143.906 101.017 143.831C101.048 143.756 101.094 143.689 101.152 143.632C101.21 143.576 101.278 143.531 101.353 143.501C101.429 143.471 101.509 143.457 101.59 143.459H123.138C123.218 143.457 123.298 143.471 123.372 143.501C123.447 143.531 123.515 143.576 123.572 143.633C123.629 143.69 123.673 143.757 123.703 143.832C123.733 143.907 123.748 143.986 123.746 144.067C123.748 144.148 123.733 144.228 123.703 144.303C123.674 144.379 123.629 144.447 123.572 144.505C123.516 144.563 123.448 144.609 123.373 144.64C123.299 144.672 123.219 144.688 123.138 144.688V144.688Z" fill="white"/>
<path d="M184.206 144.688H130.324C130.243 144.688 130.163 144.672 130.089 144.64C130.014 144.609 129.946 144.563 129.89 144.505C129.833 144.447 129.788 144.379 129.759 144.303C129.729 144.228 129.714 144.148 129.716 144.067C129.714 143.986 129.729 143.907 129.759 143.832C129.789 143.757 129.833 143.69 129.89 143.633C129.947 143.576 130.015 143.531 130.089 143.501C130.164 143.471 130.244 143.457 130.324 143.459H184.206C184.287 143.457 184.367 143.471 184.442 143.501C184.518 143.531 184.586 143.576 184.644 143.632C184.702 143.689 184.748 143.756 184.779 143.831C184.811 143.906 184.827 143.986 184.827 144.067C184.827 144.231 184.761 144.389 184.645 144.506C184.528 144.622 184.37 144.688 184.206 144.688Z" fill="#68E1FD"/>
<path d="M128.195 153.697H106.647C106.485 153.693 106.33 153.627 106.216 153.51C106.103 153.394 106.039 153.238 106.039 153.076C106.039 152.915 106.103 152.76 106.217 152.646C106.331 152.532 106.486 152.468 106.647 152.468H128.195C128.276 152.466 128.356 152.48 128.432 152.51C128.507 152.54 128.576 152.585 128.633 152.641C128.691 152.698 128.737 152.766 128.769 152.84C128.8 152.915 128.816 152.995 128.816 153.076C128.816 153.241 128.751 153.398 128.634 153.515C128.518 153.631 128.36 153.697 128.195 153.697V153.697Z" fill="white"/>
<path d="M195.347 153.697H131.288C131.123 153.697 130.965 153.631 130.848 153.515C130.732 153.398 130.667 153.241 130.667 153.076C130.667 152.995 130.683 152.915 130.714 152.84C130.745 152.766 130.791 152.698 130.849 152.641C130.907 152.585 130.976 152.54 131.051 152.51C131.126 152.48 131.207 152.466 131.288 152.468H195.347C195.428 152.466 195.509 152.48 195.584 152.51C195.659 152.54 195.728 152.585 195.786 152.641C195.843 152.698 195.889 152.766 195.921 152.84C195.952 152.915 195.968 152.995 195.968 153.076C195.968 153.241 195.903 153.398 195.786 153.515C195.67 153.631 195.512 153.697 195.347 153.697V153.697Z" fill="#68E1FD"/>
<path d="M122.479 162.706H100.931C100.763 162.706 100.602 162.639 100.483 162.52C100.364 162.401 100.297 162.24 100.297 162.072C100.297 161.904 100.364 161.743 100.483 161.624C100.602 161.505 100.763 161.439 100.931 161.439H122.479C122.647 161.439 122.808 161.505 122.927 161.624C123.046 161.743 123.112 161.904 123.112 162.072C123.112 162.24 123.046 162.401 122.927 162.52C122.808 162.639 122.647 162.706 122.479 162.706Z" fill="white"/>
<path d="M161.619 162.706H126.877C126.709 162.706 126.547 162.639 126.429 162.52C126.31 162.401 126.243 162.24 126.243 162.072C126.243 161.904 126.31 161.743 126.429 161.624C126.547 161.505 126.709 161.439 126.877 161.439H161.619C161.787 161.439 161.948 161.505 162.067 161.624C162.186 161.743 162.253 161.904 162.253 162.072C162.253 162.24 162.186 162.401 162.067 162.52C161.948 162.639 161.787 162.706 161.619 162.706V162.706Z" fill="#68E1FD"/>
<path d="M209.632 162.706H174.915C174.747 162.706 174.586 162.639 174.467 162.52C174.348 162.401 174.281 162.24 174.281 162.072C174.281 161.904 174.348 161.743 174.467 161.624C174.586 161.505 174.747 161.439 174.915 161.439H209.657C209.825 161.439 209.986 161.505 210.105 161.624C210.224 161.743 210.291 161.904 210.291 162.072C210.291 162.24 210.224 162.401 210.105 162.52C209.986 162.639 209.825 162.706 209.657 162.706H209.632Z" fill="#68E1FD"/>
<path d="M122.479 171.715H100.931C100.763 171.715 100.602 171.648 100.483 171.529C100.364 171.41 100.297 171.249 100.297 171.081C100.297 170.913 100.364 170.752 100.483 170.633C100.602 170.515 100.763 170.448 100.931 170.448H122.479C122.647 170.448 122.808 170.515 122.927 170.633C123.046 170.752 123.112 170.913 123.112 171.081C123.112 171.249 123.046 171.41 122.927 171.529C122.808 171.648 122.647 171.715 122.479 171.715Z" fill="white"/>
<path d="M161.619 171.715H131.288C131.12 171.715 130.958 171.648 130.84 171.529C130.721 171.41 130.654 171.249 130.654 171.081C130.654 170.913 130.721 170.752 130.84 170.633C130.958 170.515 131.12 170.448 131.288 170.448H161.619C161.787 170.448 161.948 170.515 162.067 170.633C162.186 170.752 162.253 170.913 162.253 171.081C162.253 171.249 162.186 171.41 162.067 171.529C161.948 171.648 161.787 171.715 161.619 171.715V171.715Z" fill="#68E1FD"/>
<path d="M179.136 171.715H166.74C166.572 171.715 166.41 171.648 166.292 171.529C166.173 171.41 166.106 171.249 166.106 171.081C166.106 170.913 166.173 170.752 166.292 170.633C166.41 170.515 166.572 170.448 166.74 170.448H179.136C179.304 170.448 179.465 170.515 179.584 170.633C179.703 170.752 179.77 170.913 179.77 171.081C179.77 171.249 179.703 171.41 179.584 171.529C179.465 171.648 179.304 171.715 179.136 171.715Z" fill="#68E1FD"/>
<path d="M122.479 180.724H100.931C100.85 180.726 100.77 180.711 100.694 180.681C100.619 180.652 100.55 180.607 100.493 180.55C100.435 180.494 100.389 180.426 100.357 180.351C100.326 180.277 100.31 180.197 100.31 180.116C100.31 179.951 100.375 179.793 100.492 179.677C100.608 179.56 100.766 179.495 100.931 179.495H122.479C122.56 179.495 122.64 179.511 122.714 179.542C122.789 179.574 122.857 179.62 122.913 179.677C122.97 179.735 123.014 179.804 123.044 179.879C123.074 179.954 123.089 180.035 123.087 180.116C123.089 180.196 123.074 180.276 123.044 180.351C123.014 180.425 122.969 180.493 122.913 180.55C122.856 180.606 122.788 180.651 122.713 180.681C122.639 180.711 122.559 180.726 122.479 180.724V180.724Z" fill="white"/>
<path d="M172.507 180.724H128.144C127.983 180.724 127.828 180.66 127.714 180.546C127.6 180.432 127.536 180.277 127.536 180.116C127.536 179.953 127.6 179.797 127.713 179.681C127.827 179.565 127.982 179.498 128.144 179.495H172.507C172.671 179.495 172.829 179.56 172.946 179.677C173.062 179.793 173.128 179.951 173.128 180.116C173.128 180.197 173.112 180.277 173.08 180.351C173.049 180.426 173.003 180.494 172.945 180.55C172.887 180.607 172.819 180.652 172.743 180.681C172.668 180.711 172.588 180.726 172.507 180.724V180.724Z" fill="#68E1FD"/>
<path d="M199.302 180.724H177.754C177.673 180.726 177.593 180.711 177.517 180.681C177.442 180.652 177.374 180.607 177.316 180.55C177.258 180.494 177.212 180.426 177.181 180.351C177.149 180.277 177.133 180.197 177.133 180.116C177.133 179.951 177.199 179.793 177.315 179.677C177.432 179.56 177.589 179.495 177.754 179.495H199.302C199.464 179.498 199.619 179.565 199.733 179.681C199.846 179.797 199.91 179.953 199.91 180.116C199.91 180.277 199.846 180.432 199.732 180.546C199.618 180.66 199.463 180.724 199.302 180.724V180.724Z" fill="#68E1FD"/>
<path d="M107.281 189.733H95.8737C95.7056 189.733 95.5444 189.666 95.4256 189.547C95.3067 189.429 95.2399 189.267 95.2399 189.099C95.2399 188.931 95.3067 188.77 95.4256 188.651C95.5444 188.533 95.7056 188.466 95.8737 188.466H107.281C107.449 188.466 107.61 188.533 107.729 188.651C107.848 188.77 107.915 188.931 107.915 189.099C107.915 189.267 107.848 189.429 107.729 189.547C107.61 189.666 107.449 189.733 107.281 189.733Z" fill="white"/>
<path d="M166.74 189.733H116.749C116.581 189.733 116.42 189.666 116.301 189.547C116.182 189.429 116.116 189.267 116.116 189.099C116.116 188.931 116.182 188.77 116.301 188.651C116.42 188.533 116.581 188.466 116.749 188.466H166.74C166.908 188.466 167.069 188.533 167.188 188.651C167.307 188.77 167.373 188.931 167.373 189.099C167.373 189.267 167.307 189.429 167.188 189.547C167.069 189.666 166.908 189.733 166.74 189.733Z" fill="#68E1FD"/>
<path d="M117.409 198.755H95.861C95.6929 198.755 95.5317 198.688 95.4129 198.569C95.294 198.45 95.2273 198.289 95.2273 198.121C95.2273 197.953 95.294 197.792 95.4129 197.673C95.5317 197.554 95.6929 197.488 95.861 197.488H117.409C117.577 197.488 117.738 197.554 117.857 197.673C117.975 197.792 118.042 197.953 118.042 198.121C118.042 198.289 117.975 198.45 117.857 198.569C117.738 198.688 117.577 198.755 117.409 198.755Z" fill="white"/>
<path d="M142.074 207.764H98.9791C98.8981 207.764 98.8179 207.748 98.7433 207.716C98.6686 207.685 98.601 207.639 98.5443 207.581C98.4877 207.523 98.4431 207.455 98.4133 207.379C98.3835 207.304 98.369 207.224 98.3707 207.143C98.369 207.062 98.3835 206.983 98.4135 206.908C98.4434 206.833 98.4882 206.766 98.545 206.709C98.6019 206.652 98.6696 206.607 98.7442 206.577C98.8188 206.547 98.8987 206.533 98.9791 206.535H142.074C142.155 206.533 142.236 206.547 142.311 206.577C142.386 206.607 142.455 206.652 142.513 206.708C142.57 206.765 142.616 206.832 142.648 206.907C142.679 206.982 142.695 207.062 142.695 207.143C142.695 207.307 142.63 207.465 142.513 207.582C142.397 207.698 142.239 207.764 142.074 207.764Z" fill="white"/>
<path d="M179.136 207.764H149.21C149.129 207.764 149.049 207.748 148.974 207.716C148.9 207.685 148.832 207.639 148.775 207.581C148.719 207.523 148.674 207.455 148.644 207.379C148.615 207.304 148.6 207.224 148.602 207.143C148.6 207.062 148.615 206.983 148.644 206.908C148.674 206.833 148.719 206.766 148.776 206.709C148.833 206.652 148.901 206.607 148.975 206.577C149.05 206.547 149.13 206.533 149.21 206.535H179.136C179.217 206.533 179.297 206.547 179.372 206.577C179.448 206.607 179.516 206.652 179.574 206.708C179.632 206.765 179.678 206.832 179.709 206.907C179.741 206.982 179.757 207.062 179.757 207.143C179.757 207.307 179.691 207.465 179.575 207.582C179.458 207.698 179.3 207.764 179.136 207.764Z" fill="#68E1FD"/>
<path d="M220.469 207.764H183.42C183.339 207.764 183.259 207.748 183.184 207.716C183.11 207.685 183.042 207.639 182.985 207.581C182.929 207.523 182.884 207.455 182.854 207.379C182.824 207.304 182.81 207.224 182.812 207.143C182.81 207.062 182.824 206.983 182.854 206.908C182.884 206.833 182.929 206.766 182.986 206.709C183.043 206.652 183.11 206.607 183.185 206.577C183.26 206.547 183.34 206.533 183.42 206.535H220.469C220.63 206.535 220.785 206.599 220.899 206.713C221.013 206.827 221.077 206.981 221.077 207.143C221.077 207.305 221.014 207.461 220.9 207.577C220.786 207.693 220.631 207.76 220.469 207.764Z" fill="#68E1FD"/>
<path d="M163.647 216.773H100.906C100.741 216.773 100.583 216.707 100.467 216.591C100.35 216.474 100.285 216.316 100.285 216.152C100.285 216.071 100.301 215.991 100.332 215.916C100.363 215.841 100.409 215.774 100.467 215.717C100.525 215.661 100.594 215.616 100.669 215.586C100.744 215.556 100.825 215.542 100.906 215.544H163.647C163.728 215.542 163.808 215.556 163.884 215.586C163.959 215.616 164.027 215.661 164.085 215.717C164.143 215.774 164.189 215.841 164.221 215.916C164.252 215.991 164.268 216.071 164.268 216.152C164.268 216.316 164.203 216.474 164.086 216.591C163.97 216.707 163.812 216.773 163.647 216.773Z" fill="white"/>
<path d="M196.158 216.773H167.931C167.766 216.773 167.608 216.707 167.492 216.591C167.375 216.474 167.31 216.316 167.31 216.152C167.31 216.071 167.326 215.991 167.357 215.916C167.389 215.841 167.435 215.774 167.493 215.717C167.55 215.661 167.619 215.616 167.694 215.586C167.77 215.556 167.85 215.542 167.931 215.544H196.158C196.239 215.542 196.319 215.556 196.393 215.586C196.468 215.616 196.536 215.661 196.592 215.718C196.649 215.775 196.694 215.842 196.724 215.917C196.754 215.992 196.768 216.071 196.767 216.152C196.768 216.233 196.754 216.313 196.724 216.388C196.694 216.464 196.65 216.532 196.593 216.59C196.536 216.648 196.469 216.694 196.394 216.725C196.319 216.757 196.239 216.773 196.158 216.773V216.773Z" fill="#68E1FD"/>
<path d="M284.871 216.773H200.937C200.774 216.769 200.62 216.702 200.506 216.586C200.392 216.47 200.328 216.314 200.328 216.152C200.328 215.991 200.392 215.836 200.507 215.722C200.621 215.608 200.775 215.544 200.937 215.544H284.871C284.952 215.542 285.032 215.556 285.107 215.586C285.183 215.616 285.251 215.661 285.309 215.717C285.367 215.774 285.413 215.841 285.444 215.916C285.476 215.991 285.492 216.071 285.492 216.152C285.492 216.316 285.426 216.474 285.31 216.591C285.193 216.707 285.035 216.773 284.871 216.773Z" fill="#68E1FD"/>
<path d="M130.324 225.782H100.652C100.484 225.782 100.323 225.715 100.204 225.596C100.085 225.477 100.018 225.316 100.018 225.148C100.018 224.98 100.085 224.819 100.204 224.7C100.323 224.581 100.484 224.515 100.652 224.515H130.324C130.492 224.515 130.654 224.581 130.772 224.7C130.891 224.819 130.958 224.98 130.958 225.148C130.958 225.316 130.891 225.477 130.772 225.596C130.654 225.715 130.492 225.782 130.324 225.782Z" fill="white"/>
<path d="M158.083 225.782H136.231C136.063 225.782 135.902 225.715 135.783 225.596C135.664 225.477 135.597 225.316 135.597 225.148C135.597 224.98 135.664 224.819 135.783 224.7C135.902 224.581 136.063 224.515 136.231 224.515H158.083C158.251 224.515 158.412 224.581 158.531 224.7C158.65 224.819 158.716 224.98 158.716 225.148C158.716 225.316 158.65 225.477 158.531 225.596C158.412 225.715 158.251 225.782 158.083 225.782Z" fill="#68E1FD"/>
<path d="M185.816 225.782H163.964C163.796 225.782 163.635 225.715 163.516 225.596C163.397 225.477 163.33 225.316 163.33 225.148C163.33 224.98 163.397 224.819 163.516 224.7C163.635 224.581 163.796 224.515 163.964 224.515H185.816C185.984 224.515 186.145 224.581 186.264 224.7C186.382 224.819 186.449 224.98 186.449 225.148C186.449 225.316 186.382 225.477 186.264 225.596C186.145 225.715 185.984 225.782 185.816 225.782Z" fill="#68E1FD"/>
<path d="M153.114 234.791H100.652C100.571 234.792 100.491 234.778 100.415 234.748C100.34 234.718 100.272 234.674 100.214 234.617C100.156 234.56 100.11 234.493 100.079 234.418C100.047 234.343 100.031 234.263 100.031 234.182C100.031 234.018 100.097 233.86 100.213 233.743C100.329 233.627 100.487 233.562 100.652 233.562H153.114C153.279 233.562 153.437 233.627 153.553 233.743C153.67 233.86 153.735 234.018 153.735 234.182C153.735 234.263 153.719 234.343 153.688 234.418C153.656 234.493 153.61 234.56 153.552 234.617C153.495 234.674 153.426 234.718 153.351 234.748C153.275 234.778 153.195 234.792 153.114 234.791V234.791Z" fill="white"/>
<path d="M185.816 234.791H159.578C159.498 234.792 159.418 234.778 159.343 234.748C159.269 234.718 159.201 234.673 159.144 234.616C159.087 234.559 159.043 234.492 159.013 234.417C158.983 234.343 158.968 234.263 158.97 234.182C158.968 234.101 158.983 234.021 159.012 233.946C159.042 233.87 159.087 233.802 159.144 233.744C159.2 233.686 159.268 233.64 159.342 233.609C159.417 233.578 159.497 233.562 159.578 233.562H185.816C185.896 233.562 185.977 233.578 186.051 233.609C186.126 233.64 186.194 233.686 186.25 233.744C186.307 233.802 186.351 233.87 186.381 233.946C186.411 234.021 186.426 234.101 186.424 234.182C186.426 234.263 186.411 234.343 186.381 234.417C186.351 234.492 186.306 234.559 186.25 234.616C186.193 234.673 186.125 234.718 186.05 234.748C185.976 234.778 185.896 234.792 185.816 234.791V234.791Z" fill="#68E1FD"/>
<path d="M232.206 234.791H192.254C192.174 234.792 192.094 234.778 192.02 234.748C191.945 234.718 191.877 234.673 191.82 234.616C191.764 234.559 191.719 234.492 191.689 234.417C191.659 234.343 191.644 234.263 191.646 234.182C191.644 234.101 191.659 234.021 191.689 233.946C191.718 233.87 191.763 233.802 191.82 233.744C191.876 233.686 191.944 233.64 192.019 233.609C192.093 233.578 192.173 233.562 192.254 233.562H232.206C232.288 233.562 232.368 233.578 232.444 233.609C232.519 233.64 232.587 233.686 232.645 233.743C232.703 233.801 232.749 233.869 232.78 233.945C232.811 234.02 232.827 234.101 232.827 234.182C232.827 234.263 232.811 234.343 232.78 234.418C232.748 234.493 232.702 234.56 232.644 234.617C232.587 234.674 232.518 234.718 232.443 234.748C232.367 234.778 232.287 234.792 232.206 234.791V234.791Z" fill="#68E1FD"/>
<path d="M276.315 234.791H236.414C236.333 234.792 236.253 234.778 236.177 234.748C236.102 234.718 236.034 234.674 235.976 234.617C235.918 234.56 235.872 234.493 235.841 234.418C235.809 234.343 235.793 234.263 235.793 234.182C235.793 234.018 235.858 233.86 235.975 233.743C236.091 233.627 236.249 233.562 236.414 233.562H276.315C276.48 233.562 276.638 233.627 276.754 233.743C276.871 233.86 276.936 234.018 276.936 234.182C276.936 234.263 276.92 234.343 276.889 234.418C276.857 234.493 276.811 234.56 276.753 234.617C276.696 234.674 276.627 234.718 276.552 234.748C276.476 234.778 276.396 234.792 276.315 234.791V234.791Z" fill="#68E1FD"/>
<path d="M145.217 243.8H113.923C113.842 243.801 113.761 243.787 113.686 243.757C113.611 243.727 113.542 243.683 113.484 243.626C113.427 243.569 113.381 243.502 113.349 243.427C113.318 243.353 113.302 243.272 113.302 243.191C113.302 243.11 113.318 243.029 113.349 242.954C113.38 242.879 113.426 242.81 113.484 242.752C113.541 242.695 113.61 242.649 113.685 242.618C113.761 242.587 113.841 242.571 113.923 242.571H145.217C145.298 242.571 145.379 242.587 145.453 242.618C145.528 242.649 145.596 242.695 145.652 242.753C145.709 242.811 145.753 242.88 145.783 242.955C145.813 243.03 145.828 243.111 145.826 243.191C145.828 243.272 145.813 243.352 145.783 243.426C145.753 243.501 145.708 243.569 145.652 243.625C145.595 243.682 145.527 243.727 145.452 243.757C145.378 243.787 145.298 243.801 145.217 243.8V243.8Z" fill="white"/>
<path d="M182.381 243.8H151.086C151.006 243.801 150.926 243.787 150.851 243.757C150.777 243.727 150.709 243.682 150.652 243.625C150.595 243.569 150.55 243.501 150.52 243.426C150.49 243.352 150.476 243.272 150.478 243.191C150.476 243.111 150.49 243.03 150.52 242.955C150.55 242.88 150.595 242.811 150.651 242.753C150.708 242.695 150.776 242.649 150.85 242.618C150.925 242.587 151.005 242.571 151.086 242.571H182.381C182.462 242.571 182.543 242.587 182.618 242.618C182.694 242.649 182.762 242.695 182.82 242.752C182.877 242.81 182.923 242.879 182.954 242.954C182.986 243.029 183.002 243.11 183.002 243.191C183.002 243.272 182.986 243.353 182.954 243.427C182.923 243.502 182.877 243.569 182.819 243.626C182.761 243.683 182.693 243.727 182.617 243.757C182.542 243.787 182.462 243.801 182.381 243.8Z" fill="#68E1FD"/>
<path d="M219.81 243.8H188.515C188.434 243.801 188.354 243.787 188.279 243.757C188.203 243.727 188.135 243.683 188.077 243.626C188.019 243.569 187.973 243.502 187.942 243.427C187.91 243.353 187.894 243.272 187.894 243.191C187.894 243.11 187.91 243.029 187.941 242.954C187.973 242.879 188.018 242.81 188.076 242.752C188.134 242.695 188.202 242.649 188.278 242.618C188.353 242.587 188.434 242.571 188.515 242.571H219.81C219.891 242.571 219.971 242.587 220.046 242.618C220.12 242.649 220.188 242.695 220.245 242.753C220.301 242.811 220.346 242.88 220.376 242.955C220.405 243.03 220.42 243.111 220.418 243.191C220.42 243.272 220.405 243.352 220.375 243.426C220.346 243.501 220.301 243.569 220.244 243.625C220.187 243.682 220.119 243.727 220.045 243.757C219.97 243.787 219.89 243.801 219.81 243.8V243.8Z" fill="#68E1FD"/>
<path d="M258.57 244.813H227.263C227.095 244.813 226.933 244.747 226.815 244.628C226.696 244.509 226.629 244.348 226.629 244.18C226.629 244.012 226.696 243.851 226.815 243.732C226.933 243.613 227.095 243.546 227.263 243.546H258.57C258.738 243.546 258.899 243.613 259.018 243.732C259.137 243.851 259.204 244.012 259.204 244.18C259.204 244.348 259.137 244.509 259.018 244.628C258.899 244.747 258.738 244.813 258.57 244.813Z" fill="#68E1FD"/>
<path d="M140.147 252.809H118.6C118.52 252.81 118.44 252.796 118.365 252.766C118.291 252.736 118.223 252.691 118.166 252.634C118.109 252.578 118.064 252.51 118.034 252.435C118.004 252.361 117.99 252.281 117.992 252.2C117.99 252.12 118.004 252.039 118.034 251.964C118.064 251.889 118.109 251.82 118.165 251.762C118.222 251.704 118.29 251.658 118.364 251.627C118.439 251.596 118.519 251.58 118.6 251.58H140.147C140.312 251.58 140.47 251.645 140.587 251.761C140.703 251.878 140.769 252.036 140.769 252.2C140.769 252.281 140.752 252.362 140.721 252.436C140.69 252.511 140.644 252.578 140.586 252.635C140.528 252.692 140.459 252.736 140.384 252.766C140.309 252.796 140.228 252.81 140.147 252.809V252.809Z" fill="white"/>
<path d="M166.79 252.809H145.243C145.162 252.81 145.081 252.796 145.006 252.766C144.931 252.736 144.862 252.692 144.804 252.635C144.747 252.578 144.701 252.511 144.669 252.436C144.638 252.362 144.622 252.281 144.622 252.2C144.622 252.036 144.687 251.878 144.804 251.761C144.92 251.645 145.078 251.58 145.243 251.58H166.79C166.871 251.58 166.951 251.596 167.026 251.627C167.101 251.658 167.168 251.704 167.225 251.762C167.282 251.82 167.326 251.889 167.356 251.964C167.386 252.039 167.4 252.12 167.399 252.2C167.4 252.281 167.386 252.361 167.356 252.435C167.326 252.51 167.281 252.578 167.224 252.634C167.168 252.691 167.1 252.736 167.025 252.766C166.951 252.796 166.871 252.81 166.79 252.809V252.809Z" fill="#68E1FD"/>
<path d="M216.603 253.721L172.063 252.809C171.982 252.809 171.902 252.793 171.827 252.761C171.753 252.73 171.685 252.684 171.628 252.626C171.572 252.568 171.527 252.5 171.497 252.424C171.468 252.349 171.453 252.269 171.455 252.188C171.453 252.105 171.468 252.023 171.5 251.947C171.531 251.87 171.578 251.802 171.638 251.744C171.697 251.687 171.768 251.643 171.846 251.615C171.923 251.586 172.006 251.574 172.089 251.58L216.628 252.492C216.797 252.492 216.958 252.559 217.077 252.677C217.195 252.796 217.262 252.957 217.262 253.125C217.262 253.293 217.195 253.455 217.077 253.573C216.958 253.692 216.797 253.759 216.628 253.759L216.603 253.721Z" fill="#68E1FD"/>
<path d="M233.22 153.697H204.068C203.987 153.697 203.906 153.681 203.832 153.649C203.757 153.618 203.689 153.572 203.633 153.514C203.576 153.456 203.532 153.388 203.502 153.313C203.472 153.237 203.457 153.157 203.459 153.076C203.457 152.996 203.472 152.916 203.502 152.841C203.532 152.767 203.577 152.699 203.633 152.642C203.69 152.585 203.758 152.54 203.833 152.51C203.907 152.48 203.987 152.466 204.068 152.468H233.22C233.301 152.466 233.381 152.48 233.457 152.51C233.532 152.54 233.601 152.585 233.658 152.641C233.716 152.698 233.762 152.766 233.794 152.84C233.825 152.915 233.841 152.995 233.841 153.076C233.841 153.241 233.776 153.398 233.659 153.515C233.543 153.631 233.385 153.697 233.22 153.697V153.697Z" fill="#68E1FD"/>
<path d="M254.768 153.785C249.064 153.785 244.83 153.785 244.628 153.659C244.55 153.637 244.478 153.6 244.415 153.551C244.351 153.501 244.298 153.44 244.259 153.37C244.179 153.228 244.159 153.061 244.203 152.905C244.247 152.749 244.351 152.616 244.492 152.536C244.633 152.457 244.801 152.437 244.957 152.48C246.072 152.62 265.313 152.544 278.039 152.48C278.12 152.479 278.2 152.493 278.276 152.523C278.351 152.553 278.419 152.597 278.477 152.654C278.535 152.711 278.581 152.778 278.612 152.853C278.644 152.927 278.66 153.008 278.66 153.089C278.66 153.253 278.594 153.411 278.478 153.528C278.362 153.644 278.204 153.709 278.039 153.709C271.245 153.735 261.866 153.785 254.768 153.785Z" fill="#68E1FD"/>
<path d="M228.568 135.679H186.234C186.066 135.679 185.905 135.612 185.786 135.493C185.667 135.374 185.6 135.213 185.6 135.045C185.6 134.877 185.667 134.716 185.786 134.597C185.905 134.478 186.066 134.412 186.234 134.412H228.568C228.736 134.412 228.898 134.478 229.016 134.597C229.135 134.716 229.202 134.877 229.202 135.045C229.202 135.213 229.135 135.374 229.016 135.493C228.898 135.612 228.736 135.679 228.568 135.679Z" fill="#68E1FD"/>
<path d="M279.205 135.679H237.022C236.854 135.679 236.693 135.612 236.574 135.493C236.456 135.374 236.389 135.213 236.389 135.045C236.389 134.877 236.456 134.716 236.574 134.597C236.693 134.478 236.854 134.412 237.022 134.412H279.154C279.322 134.412 279.483 134.478 279.602 134.597C279.721 134.716 279.788 134.877 279.788 135.045C279.788 135.213 279.721 135.374 279.602 135.493C279.483 135.612 279.322 135.679 279.154 135.679H279.205Z" fill="#68E1FD"/>
<path d="M188.858 126.708C181.037 126.708 175.08 126.708 174.839 126.708C174.678 126.68 174.535 126.59 174.44 126.457C174.345 126.324 174.306 126.159 174.332 125.998C174.357 125.841 174.443 125.7 174.571 125.605C174.699 125.51 174.859 125.469 175.016 125.491C176.094 125.567 207.35 125.491 223.752 125.491C223.917 125.491 224.074 125.557 224.191 125.673C224.307 125.79 224.373 125.948 224.373 126.112C224.373 126.193 224.357 126.273 224.325 126.348C224.294 126.423 224.248 126.49 224.19 126.547C224.132 126.603 224.064 126.648 223.989 126.678C223.913 126.708 223.833 126.722 223.752 126.72C216.869 126.682 200.696 126.708 188.858 126.708Z" fill="#68E1FD"/>
<path d="M235.172 126.695C235.059 126.693 234.948 126.658 234.854 126.595C234.76 126.532 234.685 126.444 234.64 126.34C234.578 126.183 234.577 126.009 234.638 125.852C234.7 125.694 234.818 125.566 234.969 125.491C235.463 125.251 245.312 125.225 264.223 125.491C264.385 125.498 264.537 125.566 264.651 125.681C264.764 125.797 264.828 125.951 264.831 126.112C264.831 126.193 264.815 126.273 264.784 126.348C264.753 126.423 264.707 126.49 264.649 126.547C264.591 126.604 264.522 126.648 264.447 126.678C264.372 126.708 264.291 126.722 264.21 126.721V126.721C253.196 126.606 236.452 126.505 235.413 126.721C235.332 126.735 235.248 126.726 235.172 126.695Z" fill="white"/>
<path d="M194.333 189.733H172.507C172.339 189.733 172.177 189.666 172.059 189.547C171.94 189.429 171.873 189.267 171.873 189.099C171.873 188.931 171.94 188.77 172.059 188.651C172.177 188.533 172.339 188.466 172.507 188.466H194.333C194.501 188.466 194.662 188.533 194.781 188.651C194.9 188.77 194.967 188.931 194.967 189.099C194.967 189.267 194.9 189.429 194.781 189.547C194.662 189.666 194.501 189.733 194.333 189.733Z" fill="#68E1FD"/>
<path d="M144.254 198.755H128.195C128.027 198.755 127.866 198.688 127.747 198.569C127.628 198.45 127.561 198.289 127.561 198.121C127.561 197.953 127.628 197.792 127.747 197.673C127.866 197.554 128.027 197.488 128.195 197.488H144.254C144.422 197.488 144.583 197.554 144.702 197.673C144.821 197.792 144.888 197.953 144.888 198.121C144.888 198.289 144.821 198.45 144.702 198.569C144.583 198.688 144.422 198.755 144.254 198.755Z" fill="#68E1FD"/>
<path d="M188.515 198.755H150.351C150.183 198.755 150.022 198.688 149.903 198.569C149.784 198.45 149.717 198.289 149.717 198.121C149.717 197.953 149.784 197.792 149.903 197.673C150.022 197.554 150.183 197.488 150.351 197.488H188.515C188.683 197.488 188.845 197.554 188.963 197.673C189.082 197.792 189.149 197.953 189.149 198.121C189.149 198.289 189.082 198.45 188.963 198.569C188.845 198.688 188.683 198.755 188.515 198.755V198.755Z" fill="white"/>
<path d="M270.092 198.755H196.158C195.99 198.755 195.829 198.688 195.71 198.569C195.591 198.45 195.525 198.289 195.525 198.121C195.525 197.953 195.591 197.792 195.71 197.673C195.829 197.554 195.99 197.488 196.158 197.488H270.092C270.26 197.488 270.421 197.554 270.54 197.673C270.659 197.792 270.725 197.953 270.725 198.121C270.725 198.289 270.659 198.45 270.54 198.569C270.421 198.688 270.26 198.755 270.092 198.755V198.755Z" fill="#68E1FD"/>
<path d="M72.2475 105.826C73.4375 105.826 74.4023 104.862 74.4023 103.672C74.4023 102.482 73.4375 101.518 72.2475 101.518C71.0575 101.518 70.0928 102.482 70.0928 103.672C70.0928 104.862 71.0575 105.826 72.2475 105.826Z" fill="#231F20"/>
<path d="M79.8018 105.826C80.9919 105.826 81.9566 104.862 81.9566 103.672C81.9566 102.482 80.9919 101.518 79.8018 101.518C78.6118 101.518 77.6471 102.482 77.6471 103.672C77.6471 104.862 78.6118 105.826 79.8018 105.826Z" fill="white"/>
<path d="M87.3561 105.826C88.5461 105.826 89.5109 104.862 89.5109 103.672C89.5109 102.482 88.5461 101.518 87.3561 101.518C86.1661 101.518 85.2014 102.482 85.2014 103.672C85.2014 104.862 86.1661 105.826 87.3561 105.826Z" fill="white"/>
<path d="M228.467 305.849H147.841L156.955 278.074H219.354L228.467 305.849Z" fill="white"/>
<path d="M228.467 306.483H147.841C147.74 306.486 147.64 306.465 147.55 306.421C147.459 306.377 147.38 306.312 147.32 306.231C147.26 306.15 147.221 306.055 147.206 305.956C147.191 305.856 147.2 305.754 147.233 305.659L156.346 277.884C156.387 277.755 156.468 277.642 156.577 277.563C156.687 277.483 156.819 277.44 156.955 277.441H219.354C219.489 277.44 219.621 277.483 219.731 277.563C219.84 277.642 219.921 277.755 219.962 277.884L229.075 305.659C229.108 305.754 229.118 305.856 229.102 305.956C229.087 306.055 229.048 306.15 228.988 306.231C228.928 306.312 228.849 306.377 228.759 306.421C228.668 306.465 228.568 306.486 228.467 306.483V306.483ZM148.716 305.216H227.592L218.897 278.708H157.411L148.716 305.216Z" fill="#231F20"/>
<path d="M235.121 305.849H141.187C139.024 305.849 137.27 307.599 137.27 309.758C137.27 311.917 139.024 313.667 141.187 313.667H235.121C237.284 313.667 239.038 311.917 239.038 309.758C239.038 307.599 237.284 305.849 235.121 305.849Z" fill="white"/>
<path d="M235.134 314.313H141.187C139.98 314.313 138.823 313.834 137.969 312.981C137.116 312.128 136.637 310.971 136.637 309.764C136.637 308.558 137.116 307.401 137.969 306.548C138.823 305.695 139.98 305.216 141.187 305.216H235.134C236.341 305.216 237.498 305.695 238.351 306.548C239.205 307.401 239.684 308.558 239.684 309.764C239.684 310.971 239.205 312.128 238.351 312.981C237.498 313.834 236.341 314.313 235.134 314.313V314.313ZM141.187 306.483C140.316 306.483 139.481 306.828 138.866 307.444C138.25 308.059 137.904 308.894 137.904 309.764C137.904 310.635 138.25 311.47 138.866 312.085C139.481 312.7 140.316 313.046 141.187 313.046H235.134C236.005 313.046 236.84 312.7 237.455 312.085C238.071 311.47 238.417 310.635 238.417 309.764C238.417 308.894 238.071 308.059 237.455 307.444C236.84 306.828 236.005 306.483 235.134 306.483H141.187Z" fill="#231F20"/>
<path d="M150.262 298.487C151.53 297.803 221.369 285.056 221.369 285.056L219.075 278.074H156.676L150.262 298.487Z" fill="#231F20"/>
<path d="M150.249 299.121C150.104 299.12 149.965 299.066 149.857 298.969C149.764 298.889 149.698 298.784 149.667 298.667C149.635 298.549 149.639 298.425 149.679 298.31L156.093 277.897C156.129 277.771 156.206 277.661 156.311 277.583C156.416 277.505 156.545 277.464 156.676 277.466H219.075C219.204 277.463 219.331 277.502 219.436 277.578C219.541 277.653 219.619 277.761 219.658 277.884L221.952 284.853C221.976 284.937 221.983 285.026 221.972 285.113C221.961 285.2 221.932 285.283 221.886 285.358C221.841 285.433 221.781 285.498 221.709 285.548C221.637 285.599 221.556 285.634 221.47 285.652C202.331 289.149 152.252 298.386 150.49 299.057C150.415 299.093 150.333 299.115 150.249 299.121V299.121ZM157.17 278.695L151.213 297.638C159.604 295.738 208.478 286.792 220.596 284.575L218.669 278.695H157.17Z" fill="#231F20"/>
</svg>
