<svg width="620" height="467" viewBox="0 0 620 467" fill="none" xmlns="http://www.w3.org/2000/svg">
<path d="M477.152 153.911H137.067V344.767H477.152V153.911Z" fill="#E6E6E6"/>
<path d="M477.152 122.016H137.067V153.911H477.152V122.016Z" fill="#C9C9C9"/>
<path opacity="0.08" d="M452.383 175.736H377.503V220.054H452.383V175.736Z" fill="black"/>
<path opacity="0.08" d="M452.383 227.335H377.503V271.653H452.383V227.335Z" fill="black"/>
<path opacity="0.08" d="M452.383 278.949H377.503V323.267H452.383V278.949Z" fill="black"/>
<path d="M359.43 174.714H166.268V322.508H359.43V174.714Z" fill="#68E1FD"/>
<path d="M359.43 307.203H166.268V322.508H359.43V307.203Z" fill="#24285B"/>
<path opacity="0.46" d="M349.54 313.848H176.157V315.878H349.54V313.848Z" fill="white"/>
<path d="M216.148 320.742C219.4 320.742 222.038 318.106 222.038 314.855C222.038 311.604 219.4 308.969 216.148 308.969C212.895 308.969 210.258 311.604 210.258 314.855C210.258 318.106 212.895 320.742 216.148 320.742Z" fill="#FFD200"/>
<path opacity="0.44" d="M243.009 282.992V207.538L300.312 245.257L243.009 282.992Z" fill="white"/>
<path d="M157.402 143.578C160.185 143.578 162.44 141.325 162.44 138.544C162.44 135.764 160.185 133.51 157.402 133.51C154.62 133.51 152.365 135.764 152.365 138.544C152.365 141.325 154.62 143.578 157.402 143.578Z" fill="#24285B"/>
<path d="M174.173 143.578C176.956 143.578 179.211 141.325 179.211 138.544C179.211 135.764 176.956 133.51 174.173 133.51C171.391 133.51 169.136 135.764 169.136 138.544C169.136 141.325 171.391 143.578 174.173 143.578Z" fill="#FFD200"/>
<path d="M190.944 143.578C193.727 143.578 195.982 141.325 195.982 138.544C195.982 135.764 193.727 133.51 190.944 133.51C188.162 133.51 185.907 135.764 185.907 138.544C185.907 141.325 188.162 143.578 190.944 143.578Z" fill="#68E1FD"/>
<path opacity="0.08" d="M477.152 121.969V202.024C465.899 210.481 452.041 214.738 437.978 214.059C423.915 213.379 410.533 207.804 400.149 198.301C389.766 188.798 383.036 175.964 381.125 162.024C379.214 148.083 382.242 133.913 389.686 121.969H477.152Z" fill="black"/>
<path opacity="0.08" d="M477.167 236.071H387.826V344.612H477.167V236.071Z" fill="black"/>
<path d="M527.883 242.004H401.543V357.098H527.883V242.004Z" fill="#F4F4F4"/>
<path d="M448.368 278.05H432.45C430.961 278.048 429.486 278.34 428.109 278.908C426.733 279.476 425.482 280.31 424.428 281.361C423.374 282.413 422.538 283.662 421.968 285.037C421.398 286.412 421.104 287.885 421.104 289.374V299.814C421.104 302.822 422.299 305.706 424.427 307.832C426.555 309.959 429.441 311.153 432.45 311.153H434L439.332 336.17L447.81 334.373L442.866 311.138H448.415L498.557 324.057V265.131L448.368 278.05Z" fill="#68E1FD"/>
<path d="M505.595 262.932H503.998C502.457 262.932 501.208 264.18 501.208 265.72V323.483C501.208 325.023 502.457 326.272 503.998 326.272H505.595C507.135 326.272 508.384 325.023 508.384 323.483V265.72C508.384 264.18 507.135 262.932 505.595 262.932Z" fill="#68E1FD"/>
<path opacity="0.08" d="M447.64 283.023H431.675V287.066H447.64V283.023Z" fill="black"/>
<path opacity="0.08" d="M229.571 283.271H137.067V344.395H229.571V283.271Z" fill="black"/>
<path d="M223.014 288.197H115.289V362.845H223.014V288.197Z" fill="#F4F4F4"/>
<path d="M152.876 331.26H140.755V346.75H152.876V331.26Z" fill="#C1C1C1"/>
<path d="M175.538 319.332H163.417V346.75H175.538V319.332Z" fill="#FFD200"/>
<path d="M197.764 307.188H185.643V346.75H197.764V307.188Z" fill="#68E1FD"/>
<path d="M509.191 149.047C509.19 151.376 509.055 153.703 508.788 156.017C506.991 171.588 499.21 185.851 487.087 195.795C474.963 205.739 459.448 210.585 443.816 209.309C428.185 208.034 413.661 200.737 403.313 188.959C392.964 177.182 387.601 161.846 388.355 146.191C389.11 130.535 395.923 115.785 407.357 105.056C418.79 94.3275 433.948 88.4595 449.63 88.6914C465.312 88.9234 480.29 95.2372 491.4 106.3C502.511 117.362 508.884 132.307 509.175 147.978C509.191 148.303 509.191 148.69 509.191 149.047Z" fill="#E6E6E6"/>
<path d="M448.864 191.614C472.388 191.614 491.458 172.556 491.458 149.047C491.458 125.537 472.388 106.479 448.864 106.479C425.34 106.479 406.27 125.537 406.27 149.047C406.27 172.556 425.34 191.614 448.864 191.614Z" fill="#68E1FD"/>
<path d="M448.864 174.993C463.203 174.993 474.827 163.376 474.827 149.046C474.827 134.717 463.203 123.1 448.864 123.1C434.526 123.1 422.902 134.717 422.902 149.046C422.902 163.376 434.526 174.993 448.864 174.993Z" fill="#E6E6E6"/>
<path d="M448.865 161.563C455.781 161.563 461.389 155.959 461.389 149.046C461.389 142.134 455.781 136.53 448.865 136.53C441.948 136.53 436.341 142.134 436.341 149.046C436.341 155.959 441.948 161.563 448.865 161.563Z" fill="#68E1FD"/>
<path d="M513.298 111.343L493.985 120.823L494.93 109.298L514.243 99.8181L513.298 111.343Z" fill="#FFD200"/>
<path d="M515.623 116.068L496.31 125.548L506.013 131.852L525.326 122.357L515.623 116.068Z" fill="#FFD200"/>
<path d="M516.295 109.902L446.503 144.177L448.827 148.904L518.619 114.628L516.295 109.902Z" fill="#24285B"/>
<path opacity="0.27" d="M516.295 109.902L446.503 144.177L448.827 148.904L518.619 114.628L516.295 109.902Z" fill="white"/>
<path opacity="0.08" d="M205.98 169.99H137.067V225.491H205.98V169.99Z" fill="black"/>
<path d="M200.818 164.413H120.698V219.915H200.818V164.413Z" fill="#F4F4F4"/>
<path d="M169.213 209.18C166.177 210.733 162.796 211.49 159.386 211.38C150.35 211.38 142.6 204.75 142.6 194.154C142.6 182.769 150.505 172.933 162.75 172.933C172.36 172.933 178.823 179.671 178.823 188.903C178.823 197.191 174.173 202.054 168.996 202.054C166.78 202.054 164.734 200.505 164.904 197.191H164.672C163.963 198.643 162.862 199.869 161.492 200.728C160.122 201.588 158.539 202.047 156.922 202.054C153.713 202.054 150.939 199.452 150.939 195.084C150.935 193.362 151.271 191.657 151.929 190.066C152.587 188.475 153.553 187.03 154.771 185.814C155.99 184.597 157.437 183.633 159.03 182.978C160.623 182.323 162.33 181.988 164.052 181.994C166.08 181.963 168.092 182.359 169.957 183.156L168.113 193.225C167.291 197.423 167.942 199.421 169.771 199.421C172.592 199.421 175.739 195.719 175.739 189.306C175.739 181.297 170.934 175.55 162.362 175.55C153.357 175.55 145.777 182.676 145.777 193.891C145.777 203.185 151.807 208.808 159.991 208.808C162.889 208.875 165.758 208.209 168.33 206.872L169.213 209.18ZM166.113 185.309C165.218 185.043 164.288 184.912 163.354 184.922C158.487 184.922 154.566 189.569 154.566 194.867C154.566 197.299 155.775 199.065 158.208 199.065C161.417 199.065 164.408 194.975 164.951 191.552L166.113 185.309Z" fill="#C1C1C1"/>
</svg>
